<svg xmlns="http://www.w3.org/2000/svg" viewBox="0 0 333.28 89.58"><defs><style>.cls-1{fill:#cf0061;}.cls-2{fill:#3e3a39;}</style></defs><g id="레이어_2" data-name="레이어 2"><g id="레이어_1-2" data-name="레이어 1"><path class="cls-1" d="M40.32,70.19H30.15a.66.66,0,0,0-.65.66V88.91a.66.66,0,0,0,.65.66H40.32a.67.67,0,0,0,.66-.66V70.85a.67.67,0,0,0-.66-.66"/><path class="cls-1" d="M73.86,70.19H63.69a.67.67,0,0,0-.66.66V88.91a.67.67,0,0,0,.66.66H73.86a.67.67,0,0,0,.66-.66V70.85a.67.67,0,0,0-.66-.66"/><path class="cls-1" d="M107.13,70.19H97a.67.67,0,0,0-.66.66V88.91a.67.67,0,0,0,.66.66h10.17a.67.67,0,0,0,.66-.66V70.85a.67.67,0,0,0-.66-.66"/><path class="cls-1" d="M97,19.38h10.17a.66.66,0,0,0,.66-.66V.66a.67.67,0,0,0-.66-.66H97a.67.67,0,0,0-.66.66V18.72a.67.67,0,0,0,.66.66"/><path class="cls-1" d="M63.69,19.38H73.86a.66.66,0,0,0,.66-.66V.66A.67.67,0,0,0,73.86,0H63.69A.67.67,0,0,0,63,.66V18.72a.67.67,0,0,0,.66.66"/><path class="cls-1" d="M89.31,28H48.24a.67.67,0,0,0-.66.66v3.55a.64.64,0,0,0,.65.66H63V60.68a.67.67,0,0,0,.66.66H73.86a.67.67,0,0,0,.66-.66V32.89H89.31a.65.65,0,0,0,.66-.66V28.68a.66.66,0,0,0-.66-.66"/><path class="cls-1" d="M40.72,0H30.55a.67.67,0,0,0-.66.66V28H8.74C3.06,28,0,30,0,34.88V54.47c0,4.15,1.75,6.88,7.53,6.88H32.76c6,0,8.61-3.82,8.61-8V.66A.66.66,0,0,0,40.72,0ZM29.89,54.43a1.86,1.86,0,0,1-1.66,2H13.09a1.86,1.86,0,0,1-1.67-2V34.89a1.87,1.87,0,0,1,1.67-2H28.23a1.87,1.87,0,0,1,1.66,2V54.43Z"/><path class="cls-1" d="M131.63,32.23V28.68A.67.67,0,0,0,131,28H104.81c-7.53.21-9.17,2.29-9.17,10.15v13c0,7.42,1.64,10.15,8.73,10.15H131a.67.67,0,0,0,.66-.66V57.13a.67.67,0,0,0-.66-.66H108.8a1.86,1.86,0,0,1-1.66-2v-1.7a1.21,1.21,0,0,1,0-.19V36.71a.28.28,0,0,1,0-.09V34.89a1.87,1.87,0,0,1,1.66-2l22.17,0a.66.66,0,0,0,.66-.66Z"/><path class="cls-2" d="M150.28,54.11h-4.66A1.41,1.41,0,0,0,144,55.6v4.52c0,.76.32,1.25,1.37,1.25h5.49a1.41,1.41,0,0,0,1.57-1.45V50.44h-2.19v3.67Zm0,5.43c0,.45-.11.58-.63.58h-2.8c-.54,0-.64-.13-.64-.58V56c0-.47.13-.6.64-.6h2.8c.62,0,.63.13.63.6v3.54Z"/><path class="cls-2" d="M194.49,59.91V54.07h-2.18v5.44c0,.47,0,.6-.61.6h-2.87c-.6,0-.61-.13-.61-.6V54.07H186v5.84a1.39,1.39,0,0,0,1.4,1.46h5.7a1.38,1.38,0,0,0,1.37-1.46Z"/><path class="cls-2" d="M179.45,57v1.12h2.34v1.41c0,.46-.21.59-.84.59h-2.43c-.64,0-.84-.13-.84-.59V55.94c0-.48.2-.6.8-.6H184V54.07h-7.13a1.31,1.31,0,0,0-1.37,1.46v4.38c0,.9.42,1.46,1.57,1.46h5.34c.84,0,1.58-.34,1.58-1.46V57Z"/><path class="cls-2" d="M161.59,54.07h-6.76v1.26H160c.6,0,.8.13.8.61v1h-4.89a1.35,1.35,0,0,0-1.39,1.33v1.6c0,1.12.74,1.46,1.57,1.46h5.32c1.16,0,1.57-.56,1.57-1.46V55.53a1.31,1.31,0,0,0-1.37-1.46Zm-.81,5.45c0,.46-.2.59-.84.59h-2.42c-.63,0-.84-.13-.84-.59V58.7c0-.48.19-.61.78-.61h3.32v1.43Z"/><path class="cls-2" d="M166.37,61.37h6.84V60.11H168c-.6,0-.81-.13-.81-.61V58.23h4.89a1.36,1.36,0,0,0,1.4-1.34V55.53c0-1.12-.74-1.46-1.57-1.46h-5.32c-1.16,0-1.58.56-1.58,1.46v4.38a1.31,1.31,0,0,0,1.38,1.46Zm.8-5.45c0-.46.21-.59.85-.59h2.41c.64,0,.85.13.85.59v.58c0,.48-.19.61-.79.61h-3.32V55.92Z"/><path class="cls-2" d="M212.13,61.37H219V60.11h-5.25c-.59,0-.8-.12-.8-.6V58.23h4.89a1.36,1.36,0,0,0,1.4-1.33V55.53c0-1.11-.74-1.45-1.58-1.45h-5.32c-1.15,0-1.57.55-1.57,1.45v4.39a1.31,1.31,0,0,0,1.38,1.45Zm.8-5.45c0-.46.21-.58.84-.58h2.42c.64,0,.84.12.84.58v.59c0,.47-.18.6-.78.6h-3.32V55.92Z"/><polygon class="cls-2" points="222.84 61.37 224.98 58.83 227.24 61.37 229.88 61.37 226.46 57.5 229.52 54.07 227.5 54.07 225.42 56.4 223.31 54.07 220.65 54.07 223.89 57.69 220.69 61.37 222.84 61.37 222.84 61.37"/><polygon class="cls-2" points="240.91 61.37 243.1 61.37 243.1 54.07 240.91 54.07 240.91 61.37 240.91 61.37"/><polygon class="cls-2" points="240.91 53 243.1 53 243.1 51.37 240.91 51.37 240.91 53 240.91 53"/><polygon class="cls-2" points="200.14 55.53 203.54 55.53 203.54 61.37 205.73 61.37 205.73 55.53 209.14 55.53 209.14 54.07 200.14 54.07 200.14 55.53 200.14 55.53"/><polygon class="cls-2" points="230.17 55.53 233.58 55.53 233.58 61.37 235.76 61.37 235.76 55.53 239.17 55.53 239.17 54.07 230.17 54.07 230.17 55.53 230.17 55.53"/><polygon class="cls-2" points="245.5 61.37 247.68 61.37 247.68 51.37 245.5 51.37 245.5 61.37 245.5 61.37"/><path class="cls-2" d="M251.38,61.37h6.85V60.11H253c-.6,0-.8-.12-.8-.6V58.23h4.89a1.35,1.35,0,0,0,1.39-1.33V55.53c0-1.11-.73-1.45-1.57-1.45h-5.32c-1.16,0-1.57.55-1.57,1.45v4.39a1.3,1.3,0,0,0,1.37,1.45Zm.81-5.45c0-.46.2-.58.84-.58h2.42c.63,0,.84.12.84.58v.59c0,.47-.19.6-.78.6h-3.32V55.92Z"/><polygon class="cls-2" points="326.19 61.39 328.33 58.85 330.6 61.39 333.23 61.39 329.81 57.52 332.87 54.09 330.85 54.09 328.77 56.43 326.66 54.09 324 54.09 327.24 57.71 324.05 61.39 326.19 61.39 326.19 61.39"/><path class="cls-2" d="M315.78,61.38h6.85V60.13h-5.24c-.6,0-.8-.13-.8-.61V58.24h4.88a1.35,1.35,0,0,0,1.4-1.33V55.55c0-1.12-.74-1.46-1.57-1.46H316c-1.16,0-1.57.56-1.57,1.46v4.38a1.29,1.29,0,0,0,1.37,1.45Zm.81-5.45c0-.45.2-.58.84-.58h2.42c.63,0,.84.13.84.58v.59c0,.48-.19.6-.78.6h-3.32V55.93Z"/><path class="cls-2" d="M306.12,54.08h-5.51A1.41,1.41,0,0,0,299,55.53v9.75h2.2V61.36h4.66a1.42,1.42,0,0,0,1.6-1.49V55.33c0-.75-.32-1.25-1.38-1.25Zm-.8,5.38c0,.48-.13.61-.64.61h-2.82c-.62,0-.62-.13-.62-.61V55.92c0-.46.11-.58.62-.58h2.82c.53,0,.64.12.64.58v3.54Z"/><path class="cls-2" d="M282.31,54.08h-5.7c-1.09,0-1.39.46-1.39,1.44v4.39c0,1,.3,1.47,1.37,1.47h5.76c1,0,1.35-.6,1.35-1.47V55.52c0-1-.29-1.44-1.39-1.44Zm-.79,5.43c0,.48-.21.6-.85.6h-2.42c-.62,0-.83-.12-.83-.6V56c0-.46.21-.59.83-.59h2.42c.64,0,.85.13.85.59v3.55Z"/><path class="cls-2" d="M295.43,54.08h-2.57a1.51,1.51,0,0,0-1.5.88,1.37,1.37,0,0,0-1.48-.88h-2.57a1.29,1.29,0,0,0-1.45,1.45v5.85H288V56c0-.48.12-.6.74-.6h.77c.62,0,.74.12.74.6v5.4h2.19V56c0-.48.1-.6.71-.6H294c.6,0,.73.12.73.6v5.4h2.2V55.53a1.32,1.32,0,0,0-1.46-1.45Z"/><path class="cls-2" d="M265,55.91v3.63c0,1.34.29,1.84,1.57,1.84h6.65V60.13h-5.18c-.67,0-.87-.12-.87-.59V56c0-.46.18-.58.78-.58h5.27V54.08h-6.57c-1.36,0-1.65.41-1.65,1.83Z"/><polygon class="cls-2" points="309.89 61.37 312.06 61.37 312.06 51.37 309.89 51.37 309.89 61.37 309.89 61.37"/><path class="cls-2" d="M152.08,42.91a21.66,21.66,0,0,1-4.63.58H145a1.5,1.5,0,0,1-1.53-1.38V28.76h7.92v2.3h-5.17v9.5c0,.39,0,.6.48.6h1a19.82,19.82,0,0,0,4.43-.58v2.33ZM153.74,47c-.49,0-.77-.18-.77-.65V27.83h2c.41,0,.73.11.75.6v6.12h1.79V27.63h2c.44,0,.74.09.76.59v19.4h-2c-.5,0-.8-.24-.8-.69v-10h-1.79V47Z"/><path class="cls-2" d="M170.8,47.84c-.5,0-.8-.24-.8-.69v-7.5h-7.6a.66.66,0,0,1-.73-.66V37.33h13.05a16.71,16.71,0,0,0,.58-3.73V30.74H164.51V28.39h12.6a.86.86,0,0,1,1,.84v4.35a15.77,15.77,0,0,1-.67,3.75h3.71v2.32h-8.34v8.19Z"/><path class="cls-2" d="M190.48,38a23.48,23.48,0,0,1-4.67.5h-2.63a1.5,1.5,0,0,1-1.53-1.38V28.3h8.23v2.29h-5.47v1.53h4.28v2.15h-4.28v1.38c0,.39,0,.6.47.6H186a21.38,21.38,0,0,0,4.48-.49V38Zm5.24,9.76V42.52h-10.6V40.24h12.43c.66,0,.94.28.94.75v6.74ZM192.05,39V34.36h-2a.7.7,0,0,1-.75-.65V32.14h2.73V27.83h2c.41,0,.73.11.75.6V39Zm3.69,0V27.63h2c.43,0,.73.09.75.59V39Z"/><path class="cls-2" d="M200.62,45.6a.67.67,0,0,1-.73-.69V43.25h19.45V45.6Zm16-6.1a14.74,14.74,0,0,1-7-4.41,15.71,15.71,0,0,1-7,4.41l-1.19-1.2c-.23-.28-.28-.61.11-.71,1.44-.52,6.66-2.78,6.66-6.64V28.17h2c.43,0,.73.11.75.61V31c0,3.86,5.19,6.1,6.64,6.64a.36.36,0,0,1,.19.64L216.6,39.5Z"/><path class="cls-2" d="M231,43.25a21.51,21.51,0,0,1-5.36.73H221.4a1.49,1.49,0,0,1-1.53-1.38V28.76h10v2.3h-7.18v3.49h7V36.9h-7v4.15c0,.39-.06.61.48.61h2.73a21,21,0,0,0,5.17-.73v2.32Zm2.28,4.37c-.47,0-.77-.24-.77-.69V27.63h2c.41,0,.74.11.74.59v6.33h3V36.9h-3V47.62Z"/><path class="cls-2" d="M243.65,37.52c-3.32,0-5.45-2.24-5.45-4.89s2.13-4.87,5.45-4.87,5.43,2.22,5.43,4.87-2.14,4.89-5.43,4.89Zm0-7.47A2.57,2.57,0,0,0,241,32.63a2.65,2.65,0,0,0,2.69,2.61,2.6,2.6,0,1,0,0-5.19Zm-.52,17.79a1.5,1.5,0,0,1-1.5-1.4v-4.2H252V41H241.63V38.84h12.06a.94.94,0,0,1,1.07,1v4.55H244.38v.92c0,.33.09.44.37.44H255.3v2.13ZM252,37.59v-10h2c.41,0,.73.11.73.59v9.37Z"/><path class="cls-2" d="M256.89,38.84a.67.67,0,0,1-.73-.69V36.57h7.24V34.16h1.91c.48,0,.87.06.87.69v1.72h9.43v2.27Zm15.73-6.44a15.17,15.17,0,0,1-.56,3.59h-2c-.41,0-.64-.11-.56-.56a13.86,13.86,0,0,0,.28-1.76h-10.7V31.6h10.79V30.35H259V28.11h12.67a.88.88,0,0,1,1,.86V32.4ZM269.9,47.73v-.49a9.74,9.74,0,0,1-2.56.38h-6.7a1.57,1.57,0,0,1-1.55-1.44V40.34h12.49c.71,0,1.1.37,1.1.95v6.44Zm-2-2.35a10.55,10.55,0,0,0,2-.26V42.56h-8v2.26c0,.39,0,.56.49.56Z"/><path class="cls-2" d="M276.23,38.3a.66.66,0,0,1-.73-.67V36.16H295V38.3ZM277.46,35V32.76h3.38l-.26-2.5h-2.65V28h14.58v2.26h-2.67l-.26,2.5H293V35Zm2.47,12.86a1.5,1.5,0,0,1-1.5-1.4V42.71h10.81V41.59H278.43v-2h12.49c.71,0,1.1.39,1.1,1v4.17H281.21v.65c0,.32.06.43.34.43h11v2.05Zm3.67-15.08h3.23l.26-2.5h-3.75l.26,2.5Z"/><path class="cls-2" d="M304.1,38a22.82,22.82,0,0,1-4.7.54H297a1.47,1.47,0,0,1-1.53-1.38V32.2h5V30.59h-5V28.3h6.6c.73,0,1.14.37,1.14,1v5.1h-5v1.29c0,.37,0,.63.48.63h.86a21.07,21.07,0,0,0,4.52-.5V38Zm5.56,9.74V42.5h-10.6V40.21h12.43c.67,0,.94.28.94.76v6.76ZM306,39V34.31h-1.66a.71.71,0,0,1-.76-.64V32.05H306V27.83h2c.41,0,.73.09.73.6V39Zm3.66,0V27.63h2c.43,0,.73.09.75.59V39Z"/><path class="cls-2" d="M314.56,45.6a.67.67,0,0,1-.73-.69V43.25h19.45V45.6Zm16-6.1a14.72,14.72,0,0,1-7-4.41,15.71,15.71,0,0,1-7,4.41l-1.19-1.2c-.23-.28-.28-.61.11-.71,1.45-.52,6.66-2.78,6.66-6.64V28.17h2c.43,0,.73.11.76.61V31c0,3.86,5.19,6.1,6.63,6.64a.36.36,0,0,1,.19.64l-1.22,1.27Z"/></g></g></svg>