<svg width="171" height="53" viewBox="0 0 171 53" fill="none" xmlns="http://www.w3.org/2000/svg">
<g clip-path="url(#clip0_7_64)">
<path d="M129.408 30.8328L115.95 34.771C114.534 35.1818 114.286 36.308 115.377 37.2784L119.478 40.9049C120.035 41.4845 120.769 41.8614 121.565 41.9756C122.361 42.0898 123.172 41.9348 123.869 41.5353L134.196 36.7188V35.4934L129.408 30.8328Z" fill="#F29300"/>
<path d="M134.21 25.1378L121.461 9.76745C120.505 8.61999 119.449 8.81832 118.996 10.2491L117.289 15.7598C117.034 16.5168 117.003 17.3315 117.201 18.1056C117.398 18.8797 117.815 19.5803 118.401 20.1229L129.408 30.8113L134.21 29.3947V25.1378Z" fill="#F29300"/>
<path d="M134.211 29.4302L129.408 30.8326L134.211 35.4933V29.4302Z" fill="#EA5514"/>
<path d="M135.485 36.7471L145.968 51.9332C146.797 53.1232 147.994 53.1586 148.752 51.7986L150.877 47.9242C151.819 46.1817 151.585 44.9139 150.409 43.6318L145.883 38.532L135.485 36.7471Z" fill="#EA5514"/>
<path d="M145.919 38.5321L162.21 41.3653C163.003 41.5615 163.836 41.5144 164.602 41.2301C165.367 40.9459 166.03 40.4376 166.502 39.7716L170.518 34.8559C171.439 33.7297 170.993 32.7735 169.527 32.731L145.147 32.0227C144.788 33.2979 144.062 34.4388 143.057 35.3022L145.919 38.5321Z" fill="#FBC400"/>
<path d="M166.368 23.9691C167.784 23.4449 167.912 22.3895 166.679 21.575L161.346 18.0334L145.423 30.868C145.369 31.2556 145.289 31.639 145.182 32.0155L166.368 23.9691Z" fill="#EA5514"/>
<path d="M161.317 18.0406C160.255 17.3323 158.867 17.3323 157.386 18.1256L144.084 25.3362C145.019 26.6272 145.515 28.1836 145.501 29.7773C145.499 30.1443 145.476 30.5109 145.43 30.8752L161.317 18.0406Z" fill="#F29300"/>
<path d="M157.386 18.1257C158.867 17.3324 160.219 17.3182 161.317 18.0407L165.256 14.8604C165.927 14.4156 166.431 13.7596 166.687 12.9963C166.944 12.233 166.939 11.4059 166.672 10.6459L165.022 4.00908C164.668 2.59246 163.563 2.32331 162.564 3.37869L142.993 24.1817C143.407 24.5185 143.776 24.9064 144.091 25.3363L157.386 18.1257Z" fill="#FBC400"/>
<path d="M148.66 8.92483C148.979 8.20249 149.051 7.39547 148.867 6.62772C148.683 5.85996 148.252 5.17393 147.64 4.67497L143.312 0.602194C142.25 -0.396522 141.187 -0.04237 140.89 1.37425L139.756 7.26029C140.996 7.9686 141.414 9.17273 141.322 10.7098L140.486 22.9848C141.4 23.1941 142.255 23.6082 142.986 24.196L148.66 8.92483Z" fill="#EA5514"/>
<path d="M134.6 4.42703C133.311 3.71872 132.369 4.36328 132.517 5.80115L134.21 22.8006H136.817L139.756 7.21777L134.6 4.42703Z" fill="#FBC400"/>
<path d="M141.322 10.6956C141.414 9.15854 140.996 7.94024 139.756 7.24609L136.817 22.8289H138.977C139.485 22.8279 139.99 22.8825 140.486 22.9918L141.322 10.6956Z" fill="#F29300"/>
<path d="M143.064 35.3022C141.913 36.2433 140.464 36.7453 138.977 36.7189H135.485L145.919 38.5038L143.064 35.3022Z" fill="#F29300"/>
<path d="M7.91196 46.3022H6.82116V45.3955C6.57215 45.7188 6.2492 45.9776 5.87944 46.1501C5.50968 46.3227 5.10392 46.404 4.69623 46.3872C4.36293 46.4065 4.02916 46.358 3.71509 46.2448C3.40101 46.1316 3.11314 45.956 2.8688 45.7284C2.25966 45.1122 1.95508 44.0356 1.95508 42.5056C1.95508 40.9757 2.25966 39.8991 2.8688 39.2828C3.1141 39.0542 3.40298 38.8774 3.7182 38.763C4.03341 38.6486 4.36848 38.5989 4.70332 38.617C5.11073 38.597 5.5169 38.6762 5.88701 38.8476C6.25711 39.0191 6.5801 39.2778 6.82825 39.6016V36.6833H7.91903L7.91196 46.3022ZM6.82116 42.5056C6.86075 41.8217 6.74952 41.1373 6.49534 40.5011C6.3365 40.2277 6.10863 40.0007 5.83454 39.8429C5.56046 39.6852 5.24975 39.6021 4.93351 39.6021C4.61726 39.6021 4.30656 39.6852 4.03247 39.8429C3.75839 40.0007 3.53054 40.2277 3.3717 40.5011C2.91823 41.799 2.91823 43.2123 3.3717 44.5102C3.53195 44.7818 3.7603 45.007 4.0342 45.1635C4.3081 45.3199 4.61808 45.4022 4.93351 45.4022C5.24894 45.4022 5.55891 45.3199 5.83282 45.1635C6.10672 45.007 6.33509 44.7818 6.49534 44.5102C6.74819 43.8736 6.85937 43.1896 6.82116 42.5056Z" fill="#A39890"/>
<path d="M15.2498 42.5056C15.3486 43.5919 15.0209 44.674 14.3361 45.523C13.755 46.0776 12.9826 46.3871 12.1793 46.3871C11.376 46.3871 10.6035 46.0776 10.0225 45.523C9.42704 44.628 9.10938 43.577 9.10938 42.502C9.10938 41.4271 9.42704 40.3761 10.0225 39.4811C10.6035 38.9264 11.376 38.6169 12.1793 38.6169C12.9826 38.6169 13.755 38.9264 14.3361 39.4811C15.018 40.3344 15.3452 41.4175 15.2498 42.5056ZM14.159 42.5056C14.159 41.344 13.9607 40.5577 13.564 40.1611C13.3849 39.9774 13.1698 39.8329 12.932 39.7366C12.6943 39.6402 12.4392 39.5943 12.1828 39.6015C11.9286 39.5949 11.6758 39.6413 11.4405 39.7376C11.2051 39.8339 10.9924 39.9782 10.8158 40.1611C10.405 40.5719 10.1995 41.351 10.1995 42.5056C10.1051 43.3366 10.3249 44.1729 10.8158 44.8501C10.9938 45.0307 11.2069 45.1729 11.4421 45.2679C11.6772 45.3629 11.9293 45.4088 12.1828 45.4026C12.4457 45.4099 12.7074 45.3627 12.9512 45.264C13.195 45.1652 13.4157 45.0171 13.5994 44.8288C13.9677 44.4393 14.159 43.6672 14.159 42.5056Z" fill="#A39890"/>
<path d="M22.3614 46.3022H21.2635V41.6273C21.2635 40.2815 20.6473 39.6016 19.4148 39.6016C19.1618 39.5877 18.9087 39.6271 18.672 39.7174C18.4353 39.8077 18.2202 39.9468 18.0407 40.1257C17.6884 40.5438 17.5108 41.0816 17.5449 41.6273V46.3022H16.4541V38.7233H17.5449V39.552C17.8049 39.245 18.1313 39.0013 18.4995 38.8393C18.8677 38.6773 19.2679 38.6013 19.6698 38.617C20.021 38.5995 20.3721 38.6532 20.702 38.775C21.0319 38.8967 21.3337 39.0839 21.5893 39.3253C21.8595 39.6064 22.0688 39.9401 22.2041 40.3058C22.3394 40.6714 22.3978 41.061 22.3756 41.4502L22.3614 46.3022Z" fill="#A39890"/>
<path d="M29.5082 45.3743C29.5413 46.2354 29.2391 47.0758 28.6653 47.7188C28.3696 48.0249 28.0118 48.2642 27.616 48.4206C27.2202 48.577 26.7954 48.6468 26.3704 48.6254C25.8879 48.6429 25.4067 48.5659 24.9537 48.3988C24.5218 48.2028 24.1266 47.9345 23.785 47.6055L24.4933 46.8971C24.7282 47.1251 24.9926 47.3205 25.2796 47.478C25.6057 47.6091 25.9553 47.6718 26.3066 47.6621C26.6063 47.6784 26.9054 47.6225 27.179 47.4993C27.4526 47.376 27.6927 47.189 27.8791 46.9538C28.2319 46.4757 28.4072 45.8897 28.3749 45.2964V44.8855C28.1248 45.2066 27.8012 45.463 27.4315 45.6331C27.0617 45.8032 26.6565 45.882 26.2499 45.863C25.9143 45.8752 25.5796 45.8187 25.2666 45.6969C24.9536 45.5751 24.6687 45.3906 24.4296 45.1547C23.8134 44.5314 23.5088 43.6743 23.5088 42.1869C23.5088 40.6994 23.8134 39.8353 24.4225 39.2191C24.6673 38.9897 24.9562 38.8125 25.2715 38.6981C25.5868 38.5836 25.9221 38.5343 26.257 38.5533C26.6645 38.5327 27.0709 38.6115 27.4411 38.7831C27.8113 38.9546 28.1342 39.2136 28.382 39.5378V38.6595H29.4728L29.5082 45.3743ZM28.4174 42.2648C28.4572 41.6567 28.3453 41.0482 28.0916 40.494C27.9531 40.2072 27.7304 39.9695 27.4532 39.8125C27.176 39.6556 26.8576 39.5869 26.5404 39.6157C26.2214 39.5879 25.9015 39.6569 25.6223 39.8136C25.343 39.9702 25.1175 40.2073 24.975 40.494C24.7213 41.0482 24.6093 41.6567 24.6492 42.2648C24.6071 42.8662 24.7192 43.4684 24.975 44.0143C25.1154 44.3037 25.34 44.5437 25.6194 44.703C25.8988 44.8623 26.2199 44.9333 26.5404 44.9068C26.8591 44.9344 27.1787 44.8637 27.4561 44.7041C27.7334 44.5445 27.9552 44.3038 28.0916 44.0143C28.3473 43.4684 28.4594 42.8662 28.4174 42.2648Z" fill="#A39890"/>
<path d="M36.6551 45.3742C36.692 46.2359 36.3893 47.0777 35.8122 47.7187C35.5166 48.0249 35.1588 48.2642 34.763 48.4205C34.3671 48.5769 33.9424 48.6468 33.5173 48.6254C33.0467 48.6376 32.5781 48.5607 32.1361 48.3987C31.7042 48.2027 31.309 47.9344 30.9674 47.6054L31.6757 46.8971C31.9096 47.1231 32.1715 47.3183 32.4549 47.4779C32.781 47.609 33.1306 47.6717 33.4819 47.6621C33.7825 47.6777 34.0825 47.6216 34.3571 47.4984C34.6317 47.3753 34.8732 47.1886 35.0614 46.9538C35.4091 46.4734 35.5816 45.8884 35.5502 45.2963V44.8855C35.3001 45.2066 34.9765 45.463 34.6068 45.633C34.237 45.8031 33.8318 45.882 33.4252 45.863C33.0896 45.8751 32.7549 45.8186 32.4419 45.6968C32.1289 45.575 31.844 45.3905 31.6049 45.1546C30.9957 44.5313 30.6841 43.6743 30.6841 42.1868C30.6841 40.6994 30.9887 39.8352 31.5978 39.219C31.8431 38.9904 32.132 38.8135 32.4472 38.6991C32.7624 38.5847 33.0975 38.5351 33.4323 38.5532C33.8398 38.5326 34.2462 38.6115 34.6164 38.783C34.9866 38.9545 35.3095 39.2136 35.5573 39.5378V38.6594H36.648L36.6551 45.3742ZM35.5643 42.2647C35.6023 41.6574 35.493 41.0499 35.2456 40.494C35.1051 40.2072 34.8809 39.9698 34.6028 39.813C34.3246 39.6562 34.0054 39.5874 33.6873 39.6157C33.3685 39.5889 33.049 39.6582 32.7699 39.8148C32.4909 39.9713 32.2652 40.2079 32.1219 40.494C31.8682 41.0481 31.7563 41.6566 31.7961 42.2647C31.7541 42.8661 31.8662 43.4683 32.1219 44.0143C32.2624 44.3036 32.487 44.5437 32.7664 44.703C33.0458 44.8622 33.3668 44.9333 33.6873 44.9067C34.0069 44.9338 34.3273 44.8629 34.6056 44.7035C34.884 44.5441 35.1072 44.3037 35.2456 44.0143C35.4948 43.4664 35.6043 42.8653 35.5643 42.2647Z" fill="#A39890"/>
<path d="M44.0567 46.302H42.9659V45.4521C42.7053 45.7582 42.3787 46.0013 42.0107 46.1633C41.6427 46.3252 41.2428 46.4017 40.841 46.387C40.4875 46.4061 40.1338 46.3531 39.8015 46.2314C39.4691 46.1096 39.1649 45.9216 38.9073 45.6787C38.6409 45.3959 38.4355 45.0613 38.3039 44.6958C38.1723 44.3302 38.1173 43.9415 38.1423 43.5538V38.7161H39.2331V43.3838C39.2331 44.7225 39.8494 45.3954 41.0747 45.3954C41.3278 45.4102 41.5812 45.3712 41.8181 45.2808C42.0549 45.1905 42.2699 45.0509 42.4489 44.8713C42.628 44.6694 42.7654 44.434 42.8529 44.1787C42.9405 43.9233 42.9765 43.6532 42.9588 43.3838V38.7161H44.0496L44.0567 46.302Z" fill="#A39890"/>
<path d="M51.8555 46.3022H50.4955L48.0802 42.4207L46.6636 44.0923V46.2809H45.5728V36.6833H46.6636V42.6756L50.0564 38.7304H51.4376L48.8877 41.6273L51.8555 46.3022Z" fill="#A39890"/>
<path d="M61.5379 46.3021H60.4471V45.4521C60.1861 45.7578 59.8595 46.0007 59.4916 46.1626C59.1236 46.3245 58.7239 46.4012 58.3222 46.387C57.9688 46.4049 57.6155 46.3513 57.2833 46.2296C56.951 46.1079 56.6467 45.9206 56.3885 45.6787C56.1234 45.3953 55.9193 45.0605 55.7889 44.695C55.6585 44.3294 55.6047 43.941 55.6306 43.5538V38.7161H56.7214V43.3838C56.7214 44.7225 57.3305 45.3954 58.5559 45.3954C58.81 45.4099 59.0644 45.3707 59.3023 45.2804C59.5403 45.1901 59.7566 45.0507 59.9371 44.8713C60.1163 44.6694 60.2537 44.434 60.3412 44.1787C60.4287 43.9233 60.4647 43.6532 60.4471 43.3838V38.7161H61.5379V46.3021Z" fill="#A39890"/>
<path d="M68.8973 46.3023H67.8065V41.6274C67.8065 40.2816 67.1903 39.6017 65.9507 39.6017C65.6989 39.5888 65.4472 39.6287 65.2117 39.719C64.9763 39.8093 64.7623 39.9479 64.5837 40.1258C64.2314 40.5439 64.0538 41.0817 64.0879 41.6274V46.3023H62.99V38.7234H64.0879V39.5521C64.3478 39.2451 64.6743 39.0014 65.0425 38.8394C65.4106 38.6774 65.8109 38.6014 66.2128 38.6171C66.5652 38.5986 66.9176 38.6519 67.2488 38.7736C67.5799 38.8954 67.8829 39.0831 68.1394 39.3254C68.4083 39.607 68.6163 39.9411 68.7504 40.3067C68.8844 40.6723 68.9417 41.0616 68.9186 41.4503L68.8973 46.3023Z" fill="#A39890"/>
<path d="M71.5677 37.9229H70.3281V36.6833H71.5677V37.9229ZM71.4543 46.3022H70.3919V38.7233H71.4543V46.3022Z" fill="#A39890"/>
<path d="M78.7357 38.7234L75.9733 46.3023H74.9958L72.2476 38.7234H73.4375L75.4845 44.8078L77.5457 38.7234H78.7357Z" fill="#A39890"/>
<path d="M85.082 42.8174H80.0034C79.9611 43.5072 80.1643 44.1897 80.5772 44.744C80.7785 44.98 81.0314 45.1666 81.3163 45.2894C81.6012 45.4122 81.9106 45.4679 82.2204 45.4523C82.5916 45.4523 82.9588 45.3755 83.2989 45.2268C83.6389 45.0781 83.9446 44.8607 84.1966 44.5882L84.9404 45.2469C84.607 45.6079 84.2111 45.9054 83.7716 46.1252C83.274 46.3323 82.738 46.4313 82.1992 46.4156C81.7565 46.4436 81.3131 46.3738 80.9006 46.211C80.488 46.0481 80.1163 45.7964 79.8122 45.4735C79.1523 44.6422 78.831 43.5923 78.9126 42.534C78.8591 41.524 79.1486 40.5255 79.7343 39.7008C80.0168 39.3805 80.3636 39.1234 80.7522 38.9461C81.1408 38.7689 81.5623 38.6756 81.9894 38.6722C82.4165 38.6689 82.8394 38.7556 83.2307 38.9267C83.622 39.0978 83.9729 39.3496 84.2604 39.6654C84.8431 40.4376 85.1342 41.3909 85.082 42.357V42.8174ZM83.9841 41.9674C83.9719 41.533 83.893 41.103 83.7504 40.6925C83.6018 40.3459 83.3549 40.0506 83.0401 39.8431C82.7254 39.6355 82.3566 39.5249 81.9796 39.5249C81.6026 39.5249 81.2338 39.6355 80.9191 39.8431C80.6043 40.0506 80.3574 40.3459 80.2088 40.6925C80.0686 41.1034 79.9922 41.5333 79.9822 41.9674H83.9841Z" fill="#A39890"/>
<path d="M90.2173 39.9415C89.9167 39.7174 89.551 39.5979 89.176 39.6015C88.9281 39.5946 88.6819 39.6432 88.4551 39.7437C88.2284 39.8442 88.027 39.994 87.8657 40.1824C87.5296 40.5928 87.3534 41.1112 87.3699 41.6415V46.3021H86.2791V38.7232H87.3699V39.644C87.6005 39.2992 87.9191 39.0222 88.2927 38.8416C88.6662 38.6611 89.0812 38.5835 89.4948 38.617C89.9044 38.608 90.3102 38.6979 90.6777 38.8791L90.2173 39.9415Z" fill="#A39890"/>
<path d="M96.3088 44.0922C96.3217 44.4227 96.252 44.7512 96.1061 45.048C95.9601 45.3448 95.7425 45.6006 95.473 45.7922C94.82 46.2319 94.0421 46.4481 93.2559 46.4084C92.6946 46.4399 92.1326 46.3597 91.6025 46.1725C91.0724 45.9852 90.5847 45.6947 90.1677 45.3176L90.876 44.6093C91.1816 44.9095 91.5472 45.1416 91.9488 45.2905C92.3504 45.4394 92.779 45.5018 93.2064 45.4734C94.5309 45.4734 95.1967 45.0272 95.1967 44.1418C95.1967 43.476 94.7788 43.1077 93.9501 43.0369L92.7176 42.9306C91.2302 42.7937 90.4865 42.1137 90.4865 40.8907C90.4755 40.5782 90.54 40.2677 90.6743 39.9853C90.8087 39.703 91.0091 39.4572 91.2585 39.2686C91.835 38.8491 92.5365 38.6369 93.2489 38.6666C94.217 38.6146 95.1726 38.9055 95.9475 39.4882L95.2392 40.1965C94.6673 39.7724 93.9673 39.5574 93.2559 39.5874C92.1439 39.5874 91.5843 40.0053 91.5843 40.834C91.5843 41.4927 92.0235 41.8611 92.8947 41.9461L94.0917 42.0523C95.5698 42.1704 96.3088 42.8503 96.3088 44.0922Z" fill="#A39890"/>
<path d="M98.6746 37.9229H97.4351V36.6833H98.6746V37.9229ZM98.5896 46.3022H97.4988V38.7233H98.5896V46.3022Z" fill="#A39890"/>
<path d="M103.151 46.3022H102.372C102.106 46.316 101.84 46.2689 101.594 46.1646C101.349 46.0603 101.13 45.9014 100.955 45.7001C100.619 45.307 100.444 44.8006 100.467 44.2835V39.637H99.5034V38.7799H100.445V36.6975H101.536V38.7799H103.151V39.637H101.536V44.2481C101.536 44.9564 101.883 45.3531 102.57 45.3531H103.151V46.3022Z" fill="#A39890"/>
<path d="M109.66 38.7659L106.593 47.2089C106.481 47.5418 106.297 47.8463 106.055 48.1014C105.654 48.4617 105.127 48.65 104.589 48.6255H104.114V47.6339H104.454C104.733 47.6583 105.013 47.5885 105.248 47.4356C105.456 47.2298 105.607 46.9736 105.687 46.6919L106.034 45.764L103.484 38.7588H104.66L106.579 44.4253L108.485 38.7588L109.66 38.7659Z" fill="#A39890"/>
<path d="M10.1358 24.8616C6.85635 24.8616 4.19312 27.0998 4.19312 29.8197C4.19312 32.5396 6.99801 34.8841 10.1358 34.8841C13.2736 34.8841 16.1352 32.5963 16.1352 29.8906C16.1352 27.1848 13.3728 24.8616 10.1358 24.8616ZM10.1358 32.4759C9.76365 32.5234 9.38563 32.4911 9.02692 32.3811C8.66822 32.2711 8.33705 32.086 8.05546 31.838C7.77388 31.5901 7.54835 31.285 7.39384 30.9431C7.23934 30.6012 7.15942 30.2303 7.15942 29.8551C7.15942 29.48 7.23934 29.1091 7.39384 28.7672C7.54835 28.4253 7.77388 28.1202 8.05546 27.8723C8.33705 27.6243 8.66822 27.4392 9.02692 27.3292C9.38563 27.2192 9.76365 27.1869 10.1358 27.2344C10.8747 27.1973 11.5989 27.4506 12.1535 27.9403C12.7081 28.4301 13.0491 29.1173 13.1036 29.8551C13.0491 30.5879 12.7121 31.2708 12.1637 31.7597C11.6152 32.2487 10.8983 32.5055 10.1642 32.4759H10.1358Z" fill="#A39890"/>
<path d="M20.3285 24.8829V22.4038H11.7367V20.6543H18.2531V18.2177H5.50358V15.5828H18.2531V13.1958H2.302V19.7547C2.302 20.2931 2.54284 20.6543 3.15198 20.6543H8.56346V22.4038H0V24.8829H20.3285Z" fill="#A39890"/>
<path d="M59.9583 32.8868C60.0995 32.0777 60.1659 31.2573 60.1566 30.436V22.2055H61.7078V33.9634H64.4985C64.6372 33.1255 64.7012 32.2769 64.6898 31.4277V13.1958H61.6865V19.4714H60.1424V13.1958H57.1392V23.9975C55.9239 24.2385 54.6879 24.3595 53.4489 24.3588H49.6595V16.794H55.163V14.2016H46.4721V25.6762C46.4635 25.8456 46.489 26.015 46.5471 26.1744C46.6052 26.3338 46.6947 26.4799 46.8103 26.6041C46.9259 26.7283 47.0652 26.828 47.22 26.8973C47.3748 26.9667 47.542 27.0043 47.7116 27.0078H53.4631C54.7147 27.0175 55.9608 26.8409 57.1605 26.4837V32.901L59.9583 32.8868Z" fill="#A39890"/>
<path d="M88.9849 19.6627V17.1765H86.3996V13.21H83.198V25.0175H86.1871C86.3377 24.1904 86.4088 23.3507 86.3996 22.5101V19.6768L88.9849 19.6627Z" fill="#A39890"/>
<path d="M81.2005 16.7089V14.2015H76.4123V12.2607H73.2745C73.2745 12.3528 73.2745 14.2015 73.2745 14.2015H68.4226V16.7089H70.3067C69.806 17.5137 69.5319 18.4387 69.5134 19.3863C69.6115 20.7282 70.2137 21.9833 71.1992 22.8993C72.1846 23.8154 73.4803 24.3246 74.8257 24.3246C76.1712 24.3246 77.4668 23.8154 78.4523 22.8993C79.4377 21.9833 80.04 20.7282 80.1381 19.3863C80.1103 18.4351 79.8238 17.5095 79.3093 16.7089H81.2005ZM74.7903 16.7089C75.143 16.7051 75.4928 16.7718 75.8194 16.905C76.1459 17.0382 76.4426 17.2353 76.692 17.4847C76.9414 17.7341 77.1384 18.0307 77.2716 18.3573C77.4048 18.6838 77.4715 19.0337 77.4677 19.3863C77.4661 20.0899 77.1897 20.7651 76.6975 21.2678C76.2053 21.7706 75.5362 22.0613 74.8328 22.0779C74.1208 22.0836 73.4358 21.8061 72.9284 21.3067C72.4209 20.8072 72.1327 20.1266 72.1271 19.4147C72.1214 18.7027 72.3989 18.0176 72.8983 17.5102C73.3978 17.0028 74.0783 16.7146 74.7903 16.7089Z" fill="#A39890"/>
<path d="M92.6113 16.4681H105.609V22.1346C105.609 24.0683 105.495 26.3136 105.396 27.2344H108.4C108.717 25.554 108.853 23.8441 108.803 22.1346V15.0515C108.817 14.8778 108.793 14.7031 108.733 14.5395C108.673 14.3759 108.578 14.2274 108.454 14.1041C108.331 13.9809 108.183 13.8859 108.019 13.8256C107.856 13.7654 107.681 13.7414 107.507 13.7553H92.6326L92.6113 16.4681Z" fill="#A39890"/>
<path d="M103.406 20.7959H100.211V29.2956H97.5411V20.7959H94.3396V29.2956H90.3164V31.9659H110.539V29.2956H103.406V20.7959Z" fill="#A39890"/>
<path d="M86.187 33.9633C86.3302 33.1235 86.3966 32.2724 86.3853 31.4205V26.8165C86.3724 26.5353 86.2492 26.2705 86.0423 26.0795C85.8355 25.8886 85.5617 25.7869 85.2803 25.7965H70.2217V28.4031H83.2121V33.9633H86.187Z" fill="#A39890"/>
<path d="M37.2431 33.9634V28.4032H25.2018V25.7895H31.187V23.1405H22.5811V20.548H37.1156C37.2154 19.8895 37.2604 19.2237 37.2501 18.5577V15.5828H25.2089V13.1958H39.0705C39.2648 13.1773 39.4609 13.2027 39.6441 13.2702C39.8273 13.3376 39.993 13.4453 40.129 13.5854C40.265 13.7254 40.3678 13.8943 40.4297 14.0794C40.4917 14.2645 40.5113 14.4612 40.4871 14.6549V18.1115C40.4725 18.9285 40.3944 19.7431 40.2534 20.548H42.952V23.1405H34.4523V25.7895H39.1767C40.1754 25.7895 40.5084 26.2783 40.5084 26.9228V31.4206C40.521 32.2728 40.4522 33.1243 40.3029 33.9634H37.2431Z" fill="#A39890"/>
</g>
<defs>
<clipPath id="clip0_7_64">
<rect width="171" height="52.8257" fill="white"/>
</clipPath>
</defs>
</svg>
