<svg xmlns="http://www.w3.org/2000/svg" viewBox="0 0 169.77 50.07"><defs><style>.cls-1{fill:#fff;}.cls-2{fill:#231815;}.cls-3{fill:#e0d900;}.cls-4{fill:#6fba2c;}.cls-5{fill:#007a66;}.cls-6{fill:#231c1c;}</style></defs><g id="레이어_2" data-name="레이어 2"><g id="Layer_2" data-name="Layer 2"><path class="cls-1" d="M25,.2A24.84,24.84,0,1,0,49.87,25,24.83,24.83,0,0,0,25,.2Z"/><path class="cls-2" d="M25,0h0a25,25,0,1,0,25,25A25.06,25.06,0,0,0,25,0ZM.39,25A24.64,24.64,0,1,1,25,49.68,24.68,24.68,0,0,1,.39,25Z"/><path class="cls-2" d="M11.64,11.64A18.94,18.94,0,1,0,25,6.09,18.8,18.8,0,0,0,11.64,11.64ZM6.49,25A18.55,18.55,0,1,1,25,43.58,18.42,18.42,0,0,1,6.49,25Z"/><path class="cls-2" d="M1.43,23.24c0,.06-.06,1.87-.06,1.87a1.7,1.7,0,0,0,.43,1.26l.06.05a2,2,0,0,0,1.4.51,1.76,1.76,0,0,0,1.49-.55h0a1.54,1.54,0,0,0,.38-1s.06-2,.06-2.05Zm3.2,1.6a1,1,0,0,1-.49.94,1.61,1.61,0,0,1-.89.19,1.64,1.64,0,0,1-.94-.27,1.05,1.05,0,0,1-.43-1l0-.25,0-.26A.08.08,0,0,1,2,24.16l2.58.08a.08.08,0,0,1,.07.07Z"/><path class="cls-2" d="M5.43,28.27l-4-.63c0,.07.11.5.11.53l1,.16,0,.05.32,1.51s0,.05,0,.07l-.85.55s.18.81.19.88l3.38-2.2S5.43,28.3,5.43,28.27Zm-.69.44h0a.08.08,0,0,1,0,.08l-1.25.81a.06.06,0,0,1-.07,0,.1.1,0,0,1,0-.05l-.22-1a.08.08,0,0,1,0-.07,0,0,0,0,1,.06,0l1.48.23S4.73,28.69,4.74,28.71Z"/><path class="cls-2" d="M3.28,33h0v0l0,0,1-.4a.11.11,0,0,1,.08,0l0,0,.47,1.19.4-.17c0-.14-.47-1.17-.47-1.17v-.06l0,0,.89-.36a.06.06,0,0,1,.07,0l0,0s.56,1.4.57,1.45l.48-.18S6,30.92,6,30.87l-3.5,1.4s.49,1.23.49,1.23l.49,1.24.47-.19S3.28,33,3.28,33Z"/><path class="cls-2" d="M6.44,36.77l-1,.66a.06.06,0,0,1-.08,0h0a1.41,1.41,0,0,1-.25-1.12,1.59,1.59,0,0,1,.73-.9,1.62,1.62,0,0,1,1-.31,1,1,0,0,1,.54.2,1.28,1.28,0,0,1,.4.43,3,3,0,0,1,.28.53s.13.44.14.5l.5-.32A6.42,6.42,0,0,0,8,35.24a2.37,2.37,0,0,0-.64-.69,1.78,1.78,0,0,0-.61-.28,1.89,1.89,0,0,0-1.52.33,1.89,1.89,0,0,0-.93,1.26,2.1,2.1,0,0,0,.37,1.52,5.31,5.31,0,0,0,.87,1l1.36-.88Z"/><path class="cls-2" d="M9.37,41.05s1.79-1.54,1.82-1.58l-.49-.57L9,40.4a1.4,1.4,0,0,1-.74.39.64.64,0,0,1-.42-.12l-.15-.14a.63.63,0,0,1-.17-.65A1.8,1.8,0,0,1,8,39.19l1.67-1.44-.6-.68L7.29,38.65a1.36,1.36,0,0,0-.54,1.08,1.87,1.87,0,0,0,.51,1.1,2.37,2.37,0,0,0,.41.38,1.32,1.32,0,0,0,.64.27A1.42,1.42,0,0,0,9.37,41.05Z"/><path class="cls-2" d="M14.47,44.64l1.27-2-.65-.41-1.21,2a1.48,1.48,0,0,1-.58.59.7.7,0,0,1-.63-.09.63.63,0,0,1-.35-.57,1.72,1.72,0,0,1,.32-.82l1.17-1.86L13,40.91l-1.27,2a1.37,1.37,0,0,0-.2,1.2,1.91,1.91,0,0,0,.81.91h0a1.63,1.63,0,0,0,1.2.29A1.41,1.41,0,0,0,14.47,44.64Z"/><path class="cls-2" d="M18.68,43.9,17.79,46s-.07.11-.1.1,0-.11,0-.11S17,43.24,17,43.21l-.7-.29s-.73,1.73-.73,1.73l-.73,1.74.59.25c0-.14.89-2.1.89-2.1s.05-.09.08-.09,0,.1,0,.1.61,2.75.62,2.78l.7.29,1.46-3.47Z"/><path class="cls-2" d="M19.89,44.37l-.45,1.82L19,48l.87.22c0-.05.89-3.6.91-3.66Z"/><path class="cls-2" d="M24.43,45l-1.25,2.71a.08.08,0,0,1-.07,0h0l0-.06s-.74-2.84-.76-2.88l-.95-.08,1,3.87.94.08S24.93,45.08,25,45Z"/><path class="cls-2" d="M27.83,46.39l-1.25.12h0l0-.05-.09-.95s0-.07.06-.08L28,45.27c0-.05-.05-.46-.05-.51L25.45,45c0,.06.19,1.88.19,1.88s.17,1.82.17,1.87l2.65-.25s-.05-.46-.05-.5l-1.67.16h-.06l0,0L26.55,47a.07.07,0,0,1,.07-.08l1.25-.12S27.83,46.43,27.83,46.39Z"/><path class="cls-2" d="M31.69,45.4a1,1,0,0,0,0-.65.78.78,0,0,0-.49-.59h0a1,1,0,0,0-.7,0l-1.73.45c0,.05.94,3.59,1,3.64l.8-.21c0-.14-.38-1.44-.38-1.44v0l.05,0,.35-.09h.07s1.16,1.25,1.19,1.27l1-.27-1.57-1.35a.08.08,0,0,1,0-.06.08.08,0,0,1,0-.05A1.21,1.21,0,0,0,31.69,45.4ZM30.45,46l-.34.08h-.05l0,0-.28-1.08v-.05l.05,0,.3-.09a.8.8,0,0,1,.54,0,.46.46,0,0,1,.23.33.81.81,0,0,1,0,.51A.57.57,0,0,1,30.45,46Z"/><path class="cls-2" d="M35,44.45a8.06,8.06,0,0,0-1-.07,1.63,1.63,0,0,1-.45-.07.47.47,0,0,1-.25-.2.38.38,0,0,1,0-.39.85.85,0,0,1,.29-.23,2.68,2.68,0,0,1,.48-.17l.43-.08-.26-.52-.51.17-.51.22a1.61,1.61,0,0,0-.7.63.89.89,0,0,0,0,.88,1.1,1.1,0,0,0,.77.57c.09,0,.42.05,1,.08.38,0,.61.12.7.3a.43.43,0,0,1-.06.48.94.94,0,0,1-.37.29,2.82,2.82,0,0,1-.51.19l-.46.07s.25.51.27.55l.54-.19.53-.24a1.6,1.6,0,0,0,.94-.95,1,1,0,0,0-.07-.72,1.07,1.07,0,0,0-.63-.55Z"/><path class="cls-2" d="M35.21,42.24l1.95,3.22c.05,0,.73-.44.77-.47l-2-3.21Z"/><path class="cls-2" d="M36.78,41.64l.16.2L38,41A.09.09,0,0,1,38,41l0,0,2,2.45.69-.57-2-2.45v-.05l0-.06,1-.85s-.29-.36-.33-.39l-2.86,2.38Z"/><path class="cls-2" d="M42.19,38a.06.06,0,0,1,0,.07.09.09,0,0,1-.07,0l-1.72-.24-.6.76L42.3,39h0l1.23,1s.53-.67.56-.71l-1.26-1-.9-2.33c-.06.06-.36.44-.37.46Z"/><path class="cls-2" d="M43.31,34.29h0c0-.06.21-.39.21-.39l0,0h.05l2.73,1.38.36-.71-3.24-1.64S43,34.09,43,34.13Z"/><path class="cls-2" d="M44.09,30.66a1.34,1.34,0,0,0,.08,1.15,1.24,1.24,0,0,0,.66.54,1.06,1.06,0,0,0,.84-.05,1.11,1.11,0,0,0,.54-.64,1.22,1.22,0,0,0,.06-.46.64.64,0,0,0-.15-.4l-.2-.25.31.1a1.66,1.66,0,0,1,.67.42.9.9,0,0,1,.22,1,1.78,1.78,0,0,1-.21.44s-.21.27-.26.32l.48.16a4.83,4.83,0,0,0,.43-.93,1.49,1.49,0,0,0-.14-1.4,2.13,2.13,0,0,0-1.13-.82,2,2,0,0,0-1.38,0A1.33,1.33,0,0,0,44.09,30.66Zm1.33-.23a1,1,0,0,1,.41.3.51.51,0,0,1,.09.5.5.5,0,0,1-.4.35,1,1,0,0,1-.52,0,1,1,0,0,1-.44-.3.49.49,0,0,1-.06-.49.53.53,0,0,1,.39-.35A1,1,0,0,1,45.42,30.43Z"/><path class="cls-2" d="M46.6,27.05a2.05,2.05,0,0,0-.45,1l0,.19,0,0h0l-.59-.2s-.06-.05,0-.08l.29-1.59-.59-.11-.18,1-.21,1.17,1.75.32,0-.19a1.75,1.75,0,0,1,.28-.78.69.69,0,0,1,.72-.29.67.67,0,0,1,.43.27.64.64,0,0,1,.09.49,1.87,1.87,0,0,1-.15.48l-.17.32.46.08c0-.06.18-.43.18-.43l.12-.46a1.67,1.67,0,0,0-.14-1.14,1,1,0,0,0-.64-.46l-.07,0A1,1,0,0,0,46.6,27.05Z"/><path class="cls-2" d="M46.6,23.11h0a1,1,0,0,0-.23.79,1.32,1.32,0,0,0,.13.47.78.78,0,0,0,.28.29l.19.1,0,0a.9.9,0,0,1-.18.06,1.68,1.68,0,0,1-.8-.11.9.9,0,0,1-.6-.78,2,2,0,0,1,0-.49s.08-.33.1-.39l-.5.05a5,5,0,0,0,0,1,1.54,1.54,0,0,0,.71,1.25,2.3,2.3,0,0,0,1.37.25,2.07,2.07,0,0,0,1.27-.53A1.33,1.33,0,0,0,48.7,24a1.29,1.29,0,0,0-.54-1,1.17,1.17,0,0,0-.82-.22A1.05,1.05,0,0,0,46.6,23.11Zm1.42.51h0a.48.48,0,0,1,.27.42.53.53,0,0,1-.21.49.88.88,0,0,1-.49.18.83.83,0,0,1-.51-.1.51.51,0,0,1-.27-.41.54.54,0,0,1,.22-.5,1.09,1.09,0,0,1,.49-.17A.87.87,0,0,1,48,23.62Z"/><path class="cls-2" d="M3.51,18.15a.82.82,0,1,0,.88-.75A.83.83,0,0,0,3.51,18.15Z"/><path class="cls-2" d="M46.55,18.16a.81.81,0,0,1-.75.87.82.82,0,1,1-.13-1.63A.83.83,0,0,1,46.55,18.16Z"/><path class="cls-2" d="M7.55,10.41l-.31.42-1-.75-.47.64,2,1.45a1.83,1.83,0,0,1-.1.25,1.4,1.4,0,0,1-.19.32l-.64.88L5.23,12.47,6,11.42l-.36-.26L4.41,12.85l1.9,1.37a.45.45,0,0,0,.38.09.67.67,0,0,0,.36-.26l.75-1A1.13,1.13,0,0,0,8,12.68a1.21,1.21,0,0,0,.07-.29l1.49,1.08.39-.53a1.78,1.78,0,0,0-.48-.51L7.59,11.08l.31-.42,2.41,1.76.39-.54a1.83,1.83,0,0,0-.48-.5L7,9l-.46.64Z"/><path class="cls-2" d="M16.66,4.92a.92.92,0,0,0,0-.35,1.57,1.57,0,0,0-.14-.4l-.67-1.3L12.36,4.63l.19.39,2.77-1.41.47.94A2.21,2.21,0,0,1,16,4.9a1.62,1.62,0,0,1,.1.34L13,6.79l.19.39L15,6.29,15.83,8l.59-.3a1.7,1.7,0,0,0-.2-.67l-.57-1.12,1.25-.64.31-.15a1,1,0,0,0,.29-.23l-.17-.33Z"/><path class="cls-2" d="M26.55,2.31H26V1h-.79V3.51a1.26,1.26,0,0,1-.25.07,2.09,2.09,0,0,1-.38,0H23.52V1.66h1.3V1.22H22.73V3.55a.44.44,0,0,0,.16.37.61.61,0,0,0,.43.13h1.26A1.48,1.48,0,0,0,25,4a1.16,1.16,0,0,0,.27-.11V5.73h.66A1.78,1.78,0,0,0,26,5V2.75h.52v3h.66A1.78,1.78,0,0,0,27.34,5V1h-.79Z"/><path class="cls-2" d="M34.92,5.75a1.12,1.12,0,0,0,.69-.57,1.15,1.15,0,0,0,.06-.89.94.94,0,0,0-.06-.15l.64.33.19-.38-1-.52.17-.35-.69-.36-.18.35-1-.52-.19.37.63.32a1.14,1.14,0,0,0-.9,1.51,1.37,1.37,0,0,0,1.7.86ZM33.87,5A1.09,1.09,0,0,1,34,4.32a1,1,0,0,1,.45-.47.42.42,0,0,1,.39,0,.4.4,0,0,1,.21.31,1,1,0,0,1-.12.65c-.2.4-.57.61-.83.48A.46.46,0,0,1,33.87,5Zm3.05.61.58-1.13-.7-.36L35.53,6.56l.7.36.49-1,.31.16a1,1,0,0,0,.36.11l.17-.33Zm-4.18.33,2.44,1.24-.56,1.09.64.32A1.86,1.86,0,0,0,35.69,8l.43-.86L32.94,5.52Z"/><path class="cls-2" d="M43.63,12.86q-.42.3-.72.48a1.38,1.38,0,0,1-.58.18l.41.57a1.89,1.89,0,0,0,.59-.15,3.91,3.91,0,0,0,.72-.41l1.43-1-2.15-3L43,9.79l1.68,2.32Z"/><path class="cls-2" d="M42.83,14.76l-.38-.53-.4-.56-.1-.14,1.52-1.11L43,11.78l-1.53,1.11-.2-.27-.07-.11,1.53-1.1-.47-.64-1.53,1.11-.48-.67-.35.26,1,1.4h0l1.19,1.64.2.28s0,0,0,0a.87.87,0,0,0,.25.23l.3-.21Z"/><path class="cls-3" d="M30.07,41.44c.09,0,.26-.07.26-.2,0-1,.55-5.27,5.84-10,3-2.7,5.17-5.05,5.8-9.54,0-.27,0-.39-.33-.4a11,11,0,0,1-5.89-2.09,14.8,14.8,0,0,1-2.55,7.82c-5.15,6.9-14.77,6.56-14.77,6.56v0c.11.1.24.18.34.29C22,37.18,25.87,40.91,30.07,41.44Z"/><path class="cls-4" d="M35.75,19.26a20,20,0,0,1-3.94-4.07c-2.45-3.26-5.91-6.43-9.26-7.13a.45.45,0,0,0-.58.27,19.61,19.61,0,0,1-3,5.7,36.67,36.67,0,0,1-3.14,3.58c-4.21,3.88-6.36,6.51-7.7,10-.1.24,0,.46.19.51a22,22,0,0,1,7.18,3.31c.72.51,3,2.24,3,2.24s10,1.51,15.62-5.46A12.56,12.56,0,0,0,35.75,19.26Z"/><path class="cls-5" d="M19.07,14.45a.24.24,0,0,0-.22.2A81,81,0,0,1,15.54,31c0,.13,0,.24.15.24,2.62,0,16,.35,16-9.13C31.68,15.13,21.9,14.43,19.07,14.45Z"/><path class="cls-6" d="M73.73,14.89V9.3h3.45V26.87a8,8,0,0,1-.55,3h-2.9V16.78H71.45V26.87a8,8,0,0,1-.55,3H68V21.78a5.15,5.15,0,0,1-1.2.51,6.07,6.07,0,0,1-1.7.21H59.51a2.78,2.78,0,0,1-1.86-.58A2,2,0,0,1,57,20.31V10.07h9.16V12H60.42v8.61h4.81a8.69,8.69,0,0,0,1.63-.14A6.14,6.14,0,0,0,68,20.14V9.3h3.46v5.59Z"/><path class="cls-6" d="M167.32,9.67v7.76a15.88,15.88,0,0,1-.37,3.62,7.62,7.62,0,0,1-1,2.5h-3.07a5.62,5.62,0,0,0,.84-2.55,35.82,35.82,0,0,0,.17-3.81v-5.6h-12.6V9.67Z"/><path class="cls-6" d="M168.55,24.91h.4v1.61a4.19,4.19,0,0,1-1.49.29H149.31v-1.9h3.62V16.63h3.45v8.28h2V16.63h3.46v8.28h6.68Z"/><path class="cls-6" d="M148.48,16.51a4.16,4.16,0,0,1-1.6.3h-1.54v4.7h-3.46V9.27h3.46v5.62h3.14Z"/><path class="cls-6" d="M129.64,22.6h15.7v4.24a7.91,7.91,0,0,1-.56,3h-3.13V24.49h-12Z"/><path class="cls-6" d="M136,15.83a4.59,4.59,0,0,0-.82-2.74,1.73,1.73,0,0,0-3,0,4.59,4.59,0,0,0-.82,2.74,4.65,4.65,0,0,0,.82,2.75,1.92,1.92,0,0,0,1.48.82C134.94,19.4,136,17.8,136,15.83Zm1.9-3.49a5,5,0,0,1,0,7.25,6.09,6.09,0,0,1-8.38,0,5,5,0,0,1,.51-7.68h-3.11V10.07H132V8.35h3.46v1.72h5.08v1.84h-3.14C137.54,12.05,137.71,12.19,137.87,12.34Z"/><path class="cls-6" d="M117.56,16.78V26.87a8,8,0,0,1-.55,3H114.1V21.78a4.81,4.81,0,0,1-1.2.51,6,6,0,0,1-1.7.21h-5.58a2.78,2.78,0,0,1-1.86-.58,2,2,0,0,1-.68-1.61V10.07h9.16V12h-5.7v8.61h4.8a8.61,8.61,0,0,0,1.63-.14,5.93,5.93,0,0,0,1.13-.31V9.3h3.46v5.59h2.28V9.3h3.46V26.87a8,8,0,0,1-.55,3h-2.91V16.78Z"/><path class="cls-6" d="M97.75,19.4h3.31V21a4.16,4.16,0,0,1-1.6.3H91.78v5.53a8,8,0,0,1-.55,3H88.32V21.32H79.7V19.4h15A6.18,6.18,0,0,0,95,17.91c0-.56.08-1.14.08-1.71V11.57H81.48V9.68H98.57V16.1A8,8,0,0,1,98.32,18,4.3,4.3,0,0,1,97.75,19.4Z"/><polygon class="cls-2" points="169.77 33.69 167.03 38.24 167.03 41.54 165.39 41.54 165.39 38.25 162.76 33.69 164.57 33.69 166.48 37.01 168.49 33.69 169.77 33.69"/><polygon class="cls-2" points="161.48 33.69 161.48 34.78 158.67 34.78 158.67 41.54 157.03 41.54 157.03 34.78 154.21 34.78 154.21 33.69 161.48 33.69"/><rect class="cls-2" x="150.54" y="33.69" width="1.64" height="7.85"/><path class="cls-2" d="M147.9,38.19a2.16,2.16,0,0,1,.35,1.21,2.19,2.19,0,0,1-.73,1.66,3.41,3.41,0,0,1-2.34.68,10.84,10.84,0,0,1-2.22-.27V40.13a6.71,6.71,0,0,0,1.37.46,5.07,5.07,0,0,0,.83.07,1.5,1.5,0,0,0,1-.3,1,1,0,0,0,.15-1.34,3.09,3.09,0,0,0-.91-.67l-.53-.3a4.78,4.78,0,0,1-1.54-1.17,2.07,2.07,0,0,1,.28-2.76,2.76,2.76,0,0,1,2-.63,9.84,9.84,0,0,1,2.14.27V35a6,6,0,0,0-1.92-.45,1.32,1.32,0,0,0-.9.26.75.75,0,0,0-.31.61.84.84,0,0,0,.18.52,3.22,3.22,0,0,0,.9.66l.57.31A4.92,4.92,0,0,1,147.9,38.19Z"/><path class="cls-2" d="M138.78,37.88l2.57,3.66h-2l-2-3.21h-.9v3.21H135V33.69h2.95a3.32,3.32,0,0,1,1.37.23,1.62,1.62,0,0,1,.74.68,1.93,1.93,0,0,1,.28,1,2.31,2.31,0,0,1-.4,1.3A2.51,2.51,0,0,1,138.78,37.88Zm-.12-2.06a1,1,0,0,0-.31-.77,2,2,0,0,0-1.26-.28h-.58v2.49h.38a1.75,1.75,0,0,0,1.39-.45A1.43,1.43,0,0,0,138.66,35.82Z"/><polygon class="cls-2" points="132.81 40.43 132.81 41.54 127.51 41.54 127.51 33.69 132.55 33.69 132.55 34.78 129.16 34.78 129.16 36.94 131.96 36.94 131.96 38.03 129.16 38.03 129.16 40.43 132.81 40.43"/><polygon class="cls-2" points="125.5 33.69 122.67 41.54 121.05 41.54 118.14 33.69 119.89 33.69 122.14 39.76 124.33 33.69 125.5 33.69"/><rect class="cls-2" x="114.46" y="33.69" width="1.64" height="7.85"/><polygon class="cls-2" points="111.48 33.69 111.48 41.54 110.01 41.54 106.42 36.18 106.42 41.54 105.1 41.54 105.1 33.69 106.56 33.69 110.17 39.05 110.17 33.69 111.48 33.69"/><path class="cls-2" d="M102.28,33.69v4.82a4.11,4.11,0,0,1-.34,2,2.47,2.47,0,0,1-1,.93,3.62,3.62,0,0,1-1.64.34,4.27,4.27,0,0,1-1.68-.31,2.68,2.68,0,0,1-1.11-.94,3.77,3.77,0,0,1-.41-2V33.69h1.64v4.82a2.47,2.47,0,0,0,.44,1.73,1.61,1.61,0,0,0,1.15.42,1.43,1.43,0,0,0,1.1-.42,2.29,2.29,0,0,0,.41-1.61V33.69Z"/><path class="cls-2" d="M92.3,33.86v4.62A3.92,3.92,0,0,1,92,40.35a2.21,2.21,0,0,1-1,.89,3.29,3.29,0,0,1-1.57.33,3.87,3.87,0,0,1-1.6-.3,2.51,2.51,0,0,1-1.07-.91,3.55,3.55,0,0,1-.39-1.9v-4.6H88v4.61a2.3,2.3,0,0,0,.43,1.66,1.51,1.51,0,0,0,1.09.4,1.43,1.43,0,0,0,1.06-.39,2.29,2.29,0,0,0,.39-1.56V33.86Z"/><path class="cls-2" d="M84.61,38V41.2a11.58,11.58,0,0,1-1.47.31,7.43,7.43,0,0,1-1,.06,3.91,3.91,0,0,1-3.09-1.12,4.28,4.28,0,0,1-1-2.84,4.61,4.61,0,0,1,.43-2,3.26,3.26,0,0,1,1.27-1.41,4.69,4.69,0,0,1,2.33-.5A10.71,10.71,0,0,1,84.6,34v1.22a10.45,10.45,0,0,0-1.47-.41,6.44,6.44,0,0,0-.86-.06,2.14,2.14,0,0,0-1.9.85,3.57,3.57,0,0,0-.58,2.07,3.1,3.1,0,0,0,.69,2.11,2.44,2.44,0,0,0,1.93.78,2.58,2.58,0,0,0,.63-.08V38Z"/><polygon class="cls-2" points="77.32 40.31 77.32 41.38 72.26 41.38 72.26 33.86 77.08 33.86 77.08 34.9 73.83 34.9 73.83 36.97 76.51 36.97 76.51 38.02 73.83 38.02 73.83 40.31 77.32 40.31"/><path class="cls-2" d="M68.17,33.86l2.94,7.52H69.49l-.78-2H65.59l-.78,2H63.68l2.93-7.52Zm.15,4.51-1.16-3-1.18,3Z"/><path class="cls-2" d="M63,37.46a4.78,4.78,0,0,1-.4,2,3.25,3.25,0,0,1-1.2,1.39,3.87,3.87,0,0,1-2.14.52H56.17V33.86H59.4a4.17,4.17,0,0,1,2,.41,3.07,3.07,0,0,1,1.16,1.23A4.23,4.23,0,0,1,63,37.46Zm-1.66.09a3.32,3.32,0,0,0-.28-1.41,2.1,2.1,0,0,0-.75-.94,3.14,3.14,0,0,0-1.63-.31h-1v5.42H58.9A2.74,2.74,0,0,0,60.29,40a2,2,0,0,0,.77-1A4.06,4.06,0,0,0,61.34,37.55Z"/></g></g></svg>