<svg xmlns="http://www.w3.org/2000/svg" viewBox="0 0 281.43 51.31"><defs><style>.cls-1{fill:#af0055;}.cls-2{fill:#9fa0a0;}.cls-3{fill:#231815;}</style></defs><g id="레이어_2" data-name="레이어 2"><g id="Layer_1" data-name="Layer 1"><path class="cls-1" d="M12,25l-1.11-9.18L0,51.31H21.78l7.68-25.07A59.25,59.25,0,0,0,12,25Z"/><path class="cls-1" d="M32.36,16.8,37.51,0H15.73L11.07,15.21A68.85,68.85,0,0,1,32.36,16.8Z"/><path class="cls-1" d="M59,31.15,68.52,0H46.74l-6,19.39A52.15,52.15,0,0,1,59,31.15Z"/><path class="cls-1" d="M37.9,28.84,31,51.31H52.79l2.78-9.08A40.62,40.62,0,0,0,37.9,28.84Z"/><path class="cls-2" d="M88.5,41.31a3.86,3.86,0,0,0-2-.42h-2v7.58h2.11a3.32,3.32,0,0,0,2-.51,3,3,0,0,0,1-1.34,5.58,5.58,0,0,0,.31-2,5.46,5.46,0,0,0-.35-2A2.75,2.75,0,0,0,88.5,41.31Zm.17,3.41a4.22,4.22,0,0,1-.24,1.54,1.72,1.72,0,0,1-.65.86,2.48,2.48,0,0,1-1.27.26h-.85V41.89h.83a2.31,2.31,0,0,1,1.33.3,1.81,1.81,0,0,1,.63.93Z"/><path class="cls-2" d="M98.44,40.89h-1l-2.8,7.58h1.15s.7-1.84.76-2h2.66l.67,2h1.27l-2.59-7.58Zm.41,4.56H96.9c.1-.29.77-2.13,1-2.76C98.12,43.32,98.75,45.16,98.85,45.45Z"/><path class="cls-2" d="M107.37,45h2.5V44h-2.5V42h2.86V40.89h-4.06v7.58h4.28V47.38h-3.08Z"/><path class="cls-2" d="M118.62,41.7l.57.1.41.31.18.48.13.09h1l-.06-.18-.3-.91a1.94,1.94,0,0,0-.84-.68l-1.15-.22a2.72,2.72,0,0,0-1.61.49,3.14,3.14,0,0,0-1,1.31,5.83,5.83,0,0,0-.35,2.28,5.27,5.27,0,0,0,.37,2.14,3.13,3.13,0,0,0,1,1.31,2.9,2.9,0,0,0,1.71.46,4.54,4.54,0,0,0,2.09-.57l.07,0V44.58h-2.6v1h1.49v1.84a3.58,3.58,0,0,1-1.12.25,1.45,1.45,0,0,1-1.32-.77,4.28,4.28,0,0,1-.5-2.23,4.35,4.35,0,0,1,.48-2.23A1.47,1.47,0,0,1,118.62,41.7Z"/><path class="cls-2" d="M130.21,40.89v4.5a4.89,4.89,0,0,1-.16,1.62l-.46.51-.73.16-.77-.17-.5-.46a3.19,3.19,0,0,1-.17-1.32V40.89h-1.2v5a3.8,3.8,0,0,0,.3,1.77,1.84,1.84,0,0,0,1,.81,3.59,3.59,0,0,0,1.37.25,2.72,2.72,0,0,0,1.37-.32,2.2,2.2,0,0,0,.83-.88,4.28,4.28,0,0,0,.28-1.85V40.89h-1.12Z"/><path class="cls-2" d="M148.19,40.89v3.25h-2.7V40.89h-1.2v7.58h1.2V45.15h2.7v3.32h1.19V40.89h-1.19Z"/><path class="cls-2" d="M156.13,45h2.51V44h-2.51V42H159V40.89h-4v7.58h4.29V47.38h-3.09Z"/><path class="cls-2" d="M167.82,40.89h-1L164,48.47h1.14l.77-2h2.65l.68,2h1.27l-2.59-7.58Zm.41,4.56h-2c.11-.29.78-2.13,1-2.76Z"/><path class="cls-2" d="M176.75,40.89h-1.21v7.58h4.66V47.38h-3.45Z"/><path class="cls-2" d="M184.76,40.89v1H187v6.58h1.2V41.89h2.21v-1h-5.67Z"/><path class="cls-2" d="M199.36,40.89v3.25h-2.69V40.89h-1.2v7.58h1.2V45.15h2.69v3.32h1.2V40.89h-1.2Z"/><path class="cls-2" d="M217.64,46.6l0,.2-.25.62a1.16,1.16,0,0,1-.86.26,1.46,1.46,0,0,1-1.36-.8,5.21,5.21,0,0,1,0-4.41,1.46,1.46,0,0,1,1.36-.81l.61.11.37.31.17.56.13.08h1l0-.19-.28-.93a1.88,1.88,0,0,0-.81-.72l-1.16-.22a2.77,2.77,0,0,0-2.22,1,4.64,4.64,0,0,0-.82,3,4.53,4.53,0,0,0,.83,3,2.7,2.7,0,0,0,2.2,1l1.17-.22a1.82,1.82,0,0,0,.81-.72l.34-1.12-.22,0Z"/><path class="cls-2" d="M226.7,40.69a2.64,2.64,0,0,0-2.17,1.07,4.66,4.66,0,0,0-.81,2.93,4.66,4.66,0,0,0,.81,2.93,2.75,2.75,0,0,0,4.34,0,4.68,4.68,0,0,0,.81-2.93,4.66,4.66,0,0,0-.81-2.93A2.65,2.65,0,0,0,226.7,40.69Zm0,7a1.41,1.41,0,0,1-1.27-.78,5.23,5.23,0,0,1,0-4.42,1.42,1.42,0,0,1,2.54,0,5.23,5.23,0,0,1,0,4.42A1.4,1.4,0,0,1,226.7,47.68Z"/><path class="cls-2" d="M236.18,40.89H235v7.58h4.66V47.38h-3.46Z"/><path class="cls-2" d="M245.9,40.89h-1.2v7.58h4.66V47.38H245.9Z"/><path class="cls-2" d="M255.62,45h2.5V44h-2.5V42h2.85V40.89h-4.06v7.58h4.28V47.38h-3.07Z"/><path class="cls-2" d="M266.86,41.7l.58.1.4.31.19.48.13.09h1l-.06-.18-.31-.91a1.83,1.83,0,0,0-.84-.68l-1.15-.22a2.71,2.71,0,0,0-1.6.49,3,3,0,0,0-1,1.31,5.81,5.81,0,0,0-.36,2.28,5.26,5.26,0,0,0,.38,2.14,3,3,0,0,0,1,1.31,2.87,2.87,0,0,0,1.7.46,4.48,4.48,0,0,0,2.09-.57l.08,0V44.58H266.5v1H268v1.84a3.58,3.58,0,0,1-1.12.25,1.46,1.46,0,0,1-1.32-.77,4.26,4.26,0,0,1-.5-2.23,4.34,4.34,0,0,1,.49-2.23A1.44,1.44,0,0,1,266.86,41.7Z"/><path class="cls-2" d="M275.76,47.38V45h2.51V44h-2.51V42h2.86V40.89h-4.05v7.58h4.28V47.38Z"/><path class="cls-3" d="M154.16,26.12V21.69h8V5.44h-3.46v5.17H146.17V5.44h-3.46V21.69h8v4.43H139.63V29h25.65V26.12Zm-8-7.38v-5.2h12.52v5.2Z"/><path class="cls-3" d="M106.11,12h-3.5V5.57H99.16V18.2h-12V8.49h8.39V5.57H83.7V21.13H99.16v8.06h3.45V14.88h3.5V29.2h3.44V5.57h-3.44Z"/><path class="cls-3" d="M217.45,12H214V5.54H210.5V18.2h-12V8.49h8.39V5.57H195V21.13H210.5v8.06H214V14.88h3.5V29.2h3.44V5.54h-3.44Z"/><polygon class="cls-3" points="253.61 15.41 253.61 12.49 249.15 12.49 249.15 5.55 245.69 5.55 245.69 23.48 231.56 23.48 231.56 26.41 245.68 26.41 245.69 26.4 245.69 34.11 249.15 34.11 249.15 15.41 253.61 15.41"/><path class="cls-3" d="M241,14.33a7.41,7.41,0,0,0-2.83-5.83h4.61V5.56h-7.46V3h-3.46V5.56h-7.48V8.5h4.59a7.43,7.43,0,1,0,12,5.83Zm-11.69,0a4.26,4.26,0,1,1,4.27,4.26A4.27,4.27,0,0,1,229.26,14.33Z"/><polygon class="cls-3" points="134.24 5.57 115.51 5.57 115.51 8.5 130.78 8.5 130.78 18.67 112.44 18.67 112.44 21.6 123.42 21.6 123.42 29.21 126.87 29.21 126.87 21.6 138.7 21.6 138.7 18.67 134.24 18.67 134.24 5.57"/><path class="cls-3" d="M180.31,13.83h7.09V24.75h3.44V5.25H187.4V10.9h-5.66a16.67,16.67,0,0,0,.95-5.37H168.91V8.45h9.72c-.85,8-10.94,10-10.94,10l2,2.3C175.17,19.72,178.58,16.88,180.31,13.83Z"/><polygon class="cls-3" points="176.96 23.25 173.51 23.25 173.5 33.9 191.32 33.9 191.32 30.97 176.96 30.97 176.96 23.25"/><polygon class="cls-3" points="277.73 25.44 277.73 9 277.74 9 277.74 5.9 257.2 5.9 257.2 9 274.1 9 274.1 25.44 270.06 25.44 270.06 17.83 266.41 17.83 266.41 25.44 262.97 25.44 262.97 17.83 259.32 17.83 259.32 25.44 254.33 25.44 254.33 28.53 281.43 28.53 281.43 25.44 277.73 25.44"/></g></g></svg>