<svg xmlns="http://www.w3.org/2000/svg" viewBox="0 0 65.86 52.21"><defs><style>.cls-1{fill:none;}.cls-2{fill:#fff;}.cls-3{fill:#e0d900;}.cls-4{fill:#6fba2c;}.cls-5{fill:#007a66;}</style></defs><g id="레이어_2" data-name="레이어 2"><g id="Layer_2" data-name="Layer 2"><path class="cls-1" d="M32.93.11a14.41,14.41,0,1,0,14.4,14.41A14.41,14.41,0,0,0,32.93.11Z"/><path class="cls-2" d="M32.93,0h0A14.52,14.52,0,1,0,47.44,14.52,14.53,14.53,0,0,0,32.93,0ZM18.64,14.52A14.29,14.29,0,1,1,32.93,28.81,14.31,14.31,0,0,1,18.64,14.52Z"/><path class="cls-2" d="M25.16,6.75A10.87,10.87,0,0,0,22,14.52a11,11,0,1,0,3.21-7.77Zm-3,7.77A10.76,10.76,0,1,1,32.93,25.27,10.69,10.69,0,0,1,22.17,14.52Z"/><path class="cls-2" d="M19.24,13.48s0,1.08,0,1.08a1,1,0,0,0,.26.73l0,0a1.14,1.14,0,0,0,.81.3,1.05,1.05,0,0,0,.87-.32h0a.88.88,0,0,0,.21-.56s0-1.17,0-1.2Zm1.86.93a.6.6,0,0,1-.29.54.88.88,0,0,1-.51.11,1,1,0,0,1-.55-.16.62.62,0,0,1-.25-.56V14.2l0-.16s0,0,0,0l1.49,0a.07.07,0,0,1,0,0Z"/><path class="cls-2" d="M21.56,16.39,19.25,16s.06.29.06.31l.6.09v0l.19.87s0,0,0,0l-.49.32s.1.47.11.51l2-1.27S21.56,16.41,21.56,16.39Zm-.4.26h0s0,0,0,0l-.73.48h0l0,0-.13-.6s0,0,0,0a.05.05,0,0,1,0,0l.85.14S21.16,16.63,21.16,16.65Z"/><path class="cls-2" d="M20.31,19.13h0v0l0,0,.58-.23H21l.27.68.24-.09-.28-.68v0l0,0,.51-.21s0,0,0,0h0l.33.84.28-.11s-.54-1.33-.55-1.36l-2,.81.29.72.28.71.27-.11Z"/><path class="cls-2" d="M22.14,21.32l-.58.39H21.5a.81.81,0,0,1-.15-.65,1,1,0,0,1,.42-.52,1,1,0,0,1,.58-.18.56.56,0,0,1,.31.12.82.82,0,0,1,.24.25,2.25,2.25,0,0,1,.16.31l.08.28.29-.18a4.59,4.59,0,0,0-.36-.69,1.79,1.79,0,0,0-.37-.4,1.17,1.17,0,0,0-.36-.16,1.28,1.28,0,0,0-1.42.92,1.22,1.22,0,0,0,.22.89,2.94,2.94,0,0,0,.5.59l.79-.51S22.16,21.35,22.14,21.32Z"/><path class="cls-2" d="M23.85,23.81l1-.92-.29-.34-1,.88a.81.81,0,0,1-.42.22.33.33,0,0,1-.25-.07l-.09-.08a.4.4,0,0,1-.1-.38,1.18,1.18,0,0,1,.33-.4l1-.83s-.32-.37-.35-.39l-1.05.91a.77.77,0,0,0-.31.63,1.14,1.14,0,0,0,.29.64,1.6,1.6,0,0,0,.24.22.7.7,0,0,0,.37.15A.83.83,0,0,0,23.85,23.81Z"/><path class="cls-2" d="M26.8,25.88l.74-1.18-.38-.24c0,.08-.7,1.13-.7,1.13a.82.82,0,0,1-.34.35.38.38,0,0,1-.36-.06.36.36,0,0,1-.21-.32,1.06,1.06,0,0,1,.2-.48L26.42,24,26,23.72c-.09.14-.74,1.18-.74,1.19a.8.8,0,0,0-.12.69,1.15,1.15,0,0,0,.47.53h0a1,1,0,0,0,.7.17A.83.83,0,0,0,26.8,25.88Z"/><path class="cls-2" d="M29.25,25.46c0,.08-.52,1.21-.52,1.21s0,.06-.06,0,0-.06,0-.06-.35-1.59-.36-1.6l-.4-.17s-.43,1-.43,1l-.42,1,.34.14c0-.08.52-1.21.52-1.21s0-.06.05-.06,0,.06,0,.06.35,1.6.36,1.61l.4.18.84-2Z"/><path class="cls-2" d="M30,25.73s-.26,1.06-.26,1.06l-.27,1.06.51.12s.52-2.09.53-2.12Z"/><path class="cls-2" d="M32.58,26.07l-.73,1.56s0,0,0,0h0l0,0S31.35,26,31.34,26l-.55-.05s.58,2.22.59,2.24l.54.05,1-2.1Z"/><path class="cls-2" d="M34.55,26.9l-.73.07h0v0l-.06-.55a.07.07,0,0,1,0-.05l.9-.08s0-.27,0-.29l-1.46.14s.11,1.08.11,1.08.1,1.06.1,1.09l1.53-.15s0-.26,0-.29l-1,.1h0v0l-.06-.62a.05.05,0,0,1,0-.05l.73-.07S34.55,26.92,34.55,26.9Z"/><path class="cls-2" d="M36.79,26.33a.62.62,0,0,0,0-.38.45.45,0,0,0-.28-.34h0a.63.63,0,0,0-.41,0l-1,.26L35.66,28l.47-.12L35.91,27v0l0,0,.21-.05h0l.69.73.61-.15-.91-.79s0,0,0,0a0,0,0,0,1,0,0A.77.77,0,0,0,36.79,26.33Zm-.72.33-.2,0h0v0l-.17-.63v0l0,0,.18-.05a.45.45,0,0,1,.31,0,.26.26,0,0,1,.14.19.48.48,0,0,1,0,.29A.32.32,0,0,1,36.07,26.66Z"/><path class="cls-2" d="M38.69,25.78a4,4,0,0,0-.58,0,.8.8,0,0,1-.26,0,.2.2,0,0,1-.14-.11.2.2,0,0,1,0-.23.35.35,0,0,1,.16-.13,1.83,1.83,0,0,1,.28-.1l.25,0s-.14-.28-.15-.31l-.3.1-.29.13a1,1,0,0,0-.41.36.52.52,0,0,0,0,.51.61.61,0,0,0,.44.33,4.22,4.22,0,0,0,.56.05c.23,0,.35.07.41.17a.28.28,0,0,1,0,.28.56.56,0,0,1-.22.17,1.33,1.33,0,0,1-.3.11l-.26,0,.15.32.32-.11.3-.14a1,1,0,0,0,.55-.55.56.56,0,0,0,0-.42.69.69,0,0,0-.37-.32Z"/><path class="cls-2" d="M38.83,24.5s1.11,1.84,1.13,1.86l.45-.27s-1.12-1.84-1.13-1.86Z"/><path class="cls-2" d="M39.74,24.15l.09.11.6-.5s0,0,0,0h0l1.18,1.42.4-.33-1.18-1.42v-.06l.6-.5-.19-.23S39.67,24,39.65,24Z"/><path class="cls-2" d="M42.88,22.05s0,0,0,0,0,0,0,0l-1-.14-.34.44,1.45.21h0l.72.56.32-.41c-.23-.18-.72-.56-.73-.58l-.53-1.35-.21.27S42.88,22.05,42.88,22.05Z"/><path class="cls-2" d="M43.53,19.88h0l.12-.23,0,0h0l1.59.8.2-.42-1.87-.95-.28.72Z"/><path class="cls-2" d="M44,17.78a.78.78,0,0,0,.05.67.72.72,0,0,0,.38.31.57.57,0,0,0,.48,0,.65.65,0,0,0,.32-.37.61.61,0,0,0,0-.27.38.38,0,0,0-.08-.23L45,17.71l.18.06a1,1,0,0,1,.39.25.52.52,0,0,1,.13.55,1.26,1.26,0,0,1-.13.26l-.14.18.27.09a2.89,2.89,0,0,0,.26-.53.88.88,0,0,0-.09-.81,1.2,1.2,0,0,0-.65-.48,1.23,1.23,0,0,0-.8,0A.8.8,0,0,0,44,17.78Zm.77-.13a.46.46,0,0,1,.24.17.28.28,0,0,1,0,.29.29.29,0,0,1-.23.2.56.56,0,0,1-.31,0,.65.65,0,0,1-.25-.17.29.29,0,0,1,0-.29.28.28,0,0,1,.22-.2A.55.55,0,0,1,44.75,17.65Z"/><path class="cls-2" d="M45.43,15.68a1.23,1.23,0,0,0-.26.59l0,.1,0,0h0l-.34-.12a.05.05,0,0,1,0-.05s.17-.89.17-.92l-.34-.06s-.11.57-.11.57-.11.66-.12.69l1,.18v-.11a1,1,0,0,1,.16-.45.4.4,0,0,1,.42-.17.36.36,0,0,1,.25.16.34.34,0,0,1,.05.28,1,1,0,0,1-.09.28s-.08.15-.09.18l.26.05s.11-.25.11-.25l.06-.26a1,1,0,0,0-.08-.67.61.61,0,0,0-.37-.27h0A.58.58,0,0,0,45.43,15.68Z"/><path class="cls-2" d="M45.43,13.4h0a.64.64,0,0,0-.13.46.56.56,0,0,0,.08.27.53.53,0,0,0,.16.17l.11.06h0l-.11,0a1.19,1.19,0,0,1-.46-.06.54.54,0,0,1-.35-.46,1.31,1.31,0,0,1,0-.28l.06-.23-.29,0a3.94,3.94,0,0,0,0,.59.9.9,0,0,0,.42.73,1.32,1.32,0,0,0,.79.14,1.17,1.17,0,0,0,.74-.3.79.79,0,0,0,.21-.67.73.73,0,0,0-.31-.59.64.64,0,0,0-.47-.13A.63.63,0,0,0,45.43,13.4Zm.83.3h0a.28.28,0,0,1,.16.24.29.29,0,0,1-.13.28.44.44,0,0,1-.28.11.51.51,0,0,1-.3-.06.3.3,0,0,1-.15-.24.28.28,0,0,1,.12-.28.5.5,0,0,1,.29-.1A.46.46,0,0,1,46.26,13.7Z"/><path class="cls-2" d="M20.45,10.53a.48.48,0,1,0,.51-.44A.48.48,0,0,0,20.45,10.53Z"/><path class="cls-2" d="M45.41,10.53a.48.48,0,1,1-.51-.44A.48.48,0,0,1,45.41,10.53Z"/><path class="cls-2" d="M22.79,6l-.18.24L22,5.85l-.27.37,1.15.84a.82.82,0,0,1,0,.14,1.3,1.3,0,0,1-.11.19l-.38.51-.91-.67.44-.61-.21-.15-.71,1,1.1.8a.26.26,0,0,0,.22.05.38.38,0,0,0,.21-.15l.43-.6a.58.58,0,0,0,.11-.2.59.59,0,0,0,0-.17l.87.63.22-.31a1.13,1.13,0,0,0-.28-.29l-1.08-.78L23,6.18l1.4,1,.23-.31a1.13,1.13,0,0,0-.28-.29L22.46,5.23l-.27.37Z"/><path class="cls-2" d="M28.08,2.86a.61.61,0,0,0,0-.21A.52.52,0,0,0,28,2.42l-.38-.76-2,1,.11.22,1.6-.82.28.55a.72.72,0,0,1,.09.2.89.89,0,0,1,.06.2L26,3.94l.11.22,1-.52.51,1,.34-.17a.93.93,0,0,0-.11-.39l-.33-.65.72-.37L28.39,3a.65.65,0,0,0,.17-.13l-.1-.19Z"/><path class="cls-2" d="M33.81,1.34H33.5V.6h-.45V2l-.15,0h-.85V1h.76V.7H31.59V2.06a.26.26,0,0,0,.09.21.39.39,0,0,0,.25.08h.74a.73.73,0,0,0,.22,0l.16-.07V3.32h.38a1.09,1.09,0,0,0,.07-.4V1.59h.31V3.32h.38a1.09,1.09,0,0,0,.07-.4V.6h-.45Z"/><path class="cls-2" d="M38.66,3.34a.68.68,0,0,0,.4-.34.72.72,0,0,0,0-.52l0-.08.37.19.11-.22L39,2.07l.1-.2-.41-.21-.1.2-.6-.3-.11.21L38.2,2a.68.68,0,0,0-.49.35.72.72,0,0,0,0,.52.82.82,0,0,0,1,.51Zm-.6-.46a.66.66,0,0,1,.06-.38.59.59,0,0,1,.27-.27.25.25,0,0,1,.22,0,.29.29,0,0,1,.12.19.56.56,0,0,1-.07.37c-.11.23-.33.36-.48.28A.24.24,0,0,1,38.06,2.88Zm1.76.35.34-.66-.41-.21L39,3.8l.4.21.29-.55.18.09a.46.46,0,0,0,.2.06l.1-.19Zm-2.42.19,1.41.72-.32.63.37.19a1,1,0,0,0,.24-.32l.26-.5L37.51,3.2Z"/><path class="cls-2" d="M43.72,7.46l-.43.28a.7.7,0,0,1-.33.1l.23.33a1.25,1.25,0,0,0,.35-.08A2.43,2.43,0,0,0,44,7.84l.82-.6L43.54,5.53l-.21.15,1,1.34Z"/><path class="cls-2" d="M43.25,8.56,43,8.25l-.23-.32-.06-.09.88-.64-.27-.37-.88.64-.12-.15,0-.06.88-.65-.27-.36L42,6.89l-.28-.39-.2.15.59.81h0l.69,1,.12.17h0a.67.67,0,0,0,.15.13l.17-.12Z"/><path class="cls-3" d="M35.85,24s.15,0,.15-.12c0-.58.32-3.05,3.39-5.77,1.77-1.56,3-2.93,3.36-5.53,0-.15,0-.22-.19-.23a6.43,6.43,0,0,1-3.42-1.21,8.56,8.56,0,0,1-1.48,4.53c-3,4-8.56,3.81-8.56,3.81v0l.2.17C31.19,21.56,33.41,23.72,35.85,24Z"/><path class="cls-4" d="M39.14,11.17a12.15,12.15,0,0,1-2.28-2.36c-1.43-1.89-3.43-3.73-5.37-4.14a.27.27,0,0,0-.34.16,11.4,11.4,0,0,1-1.76,3.31,21.68,21.68,0,0,1-1.82,2.07C25.13,12.46,23.88,14,23.11,16c-.06.14,0,.27.11.3a12.66,12.66,0,0,1,4.16,1.92c.42.3,1.72,1.3,1.72,1.3s5.77.87,9.06-3.17A7.22,7.22,0,0,0,39.14,11.17Z"/><path class="cls-5" d="M29.47,8.38a.14.14,0,0,0-.13.12A46.38,46.38,0,0,1,27.42,18c0,.08,0,.14.09.14,1.52,0,9.3.21,9.29-5.29C36.78,8.77,31.11,8.37,29.47,8.38Z"/><polygon class="cls-2" points="64.27 50.18 64.27 52.1 63.32 52.1 63.32 50.2 61.79 47.55 62.84 47.55 63.95 49.48 65.11 47.55 65.86 47.55 64.27 50.18"/><polygon class="cls-2" points="59.42 48.18 59.42 52.1 58.47 52.1 58.47 48.18 56.84 48.18 56.84 47.55 61.05 47.55 61.05 48.18 59.42 48.18"/><rect class="cls-2" x="54.71" y="47.54" width="0.95" height="4.56"/><path class="cls-2" d="M53.18,50.15A1.31,1.31,0,0,1,53,51.81a1.94,1.94,0,0,1-1.36.4,5.8,5.8,0,0,1-1.28-.16v-.78a4.85,4.85,0,0,0,.79.28,4.23,4.23,0,0,0,.48,0,.85.85,0,0,0,.59-.18.56.56,0,0,0,.19-.43.62.62,0,0,0-.1-.35,1.84,1.84,0,0,0-.53-.39l-.31-.17a2.82,2.82,0,0,1-.89-.68,1.11,1.11,0,0,1-.23-.72,1.16,1.16,0,0,1,.39-.87,1.57,1.57,0,0,1,1.13-.37,5.87,5.87,0,0,1,1.24.15v.73A3.55,3.55,0,0,0,52,48.05a.79.79,0,0,0-.52.15.45.45,0,0,0-.18.36.47.47,0,0,0,.1.3,2.05,2.05,0,0,0,.53.38l.33.18A3,3,0,0,1,53.18,50.15Z"/><path class="cls-2" d="M45.68,47.54h1.71a2,2,0,0,1,.79.13,1,1,0,0,1,.44.4,1.12,1.12,0,0,1,.16.6,1.34,1.34,0,0,1-.24.76,1.52,1.52,0,0,1-.65.54l1.49,2.13H48.23l-1.14-1.87h-.51V52.1h-.9Zm1.23.63h-.33v1.44h.22a1,1,0,0,0,.8-.26.83.83,0,0,0,.22-.57.58.58,0,0,0-.18-.45A1.13,1.13,0,0,0,46.91,48.17Z"/><polygon class="cls-2" points="43.94 49.43 43.94 50.06 42.31 50.06 42.31 51.45 44.43 51.45 44.43 52.1 41.36 52.1 41.36 47.55 44.28 47.55 44.28 48.18 42.31 48.18 42.31 49.43 43.94 49.43"/><polygon class="cls-2" points="38.24 51.06 39.51 47.55 40.19 47.55 38.55 52.1 37.61 52.1 35.93 47.55 36.94 47.55 38.24 51.06"/><rect class="cls-2" x="33.79" y="47.54" width="0.95" height="4.56"/><polygon class="cls-2" points="31.31 50.66 31.31 47.55 32.07 47.55 32.07 52.1 31.21 52.1 29.13 48.98 29.13 52.1 28.37 52.1 28.37 47.55 29.21 47.55 31.31 50.66"/><path class="cls-2" d="M26.73,50.34a2.37,2.37,0,0,1-.2,1.13A1.35,1.35,0,0,1,26,52a2.06,2.06,0,0,1-.95.2A2.37,2.37,0,0,1,24,52a1.52,1.52,0,0,1-.65-.55,2.23,2.23,0,0,1-.23-1.15V47.54h.95v2.8a1.42,1.42,0,0,0,.25,1,.9.9,0,0,0,.67.25.81.81,0,0,0,.63-.25,1.33,1.33,0,0,0,.24-.93V47.54h.83Z"/><path class="cls-2" d="M19.31,51.51a.86.86,0,0,0,.62-.23,1.34,1.34,0,0,0,.22-.9V47.64H21v2.68a2.22,2.22,0,0,1-.2,1.08,1.21,1.21,0,0,1-.55.52,1.86,1.86,0,0,1-.91.19,2.2,2.2,0,0,1-.93-.18,1.35,1.35,0,0,1-.61-.52,2.07,2.07,0,0,1-.23-1.1V47.64h.91v2.67a1.35,1.35,0,0,0,.25,1A.89.89,0,0,0,19.31,51.51Z"/><path class="cls-2" d="M16.49,50V51.9a7,7,0,0,1-.85.18,5.17,5.17,0,0,1-.57,0,2.26,2.26,0,0,1-1.79-.65,2.44,2.44,0,0,1-.55-1.65A2.78,2.78,0,0,1,13,48.64a2,2,0,0,1,.74-.82,2.73,2.73,0,0,1,1.35-.29,5.69,5.69,0,0,1,1.42.17v.7a6.39,6.39,0,0,0-.85-.24l-.5,0a1.25,1.25,0,0,0-1.1.49,2.12,2.12,0,0,0-.34,1.2,1.81,1.81,0,0,0,.4,1.22,1.43,1.43,0,0,0,1.12.46,1.8,1.8,0,0,0,.37,0V50Z"/><polygon class="cls-2" points="11.79 49.45 11.79 50.05 10.24 50.05 10.24 51.38 12.26 51.38 12.26 52.01 9.33 52.01 9.33 47.64 12.12 47.64 12.12 48.24 10.24 48.24 10.24 49.45 11.79 49.45"/><path class="cls-2" d="M7,50.26l-.67-1.74-.68,1.74Zm-1-2.62H7L8.66,52H7.72l-.45-1.16H5.46L5,52H4.35Z"/><path class="cls-2" d="M3,49.78A1.94,1.94,0,0,0,2.84,49a1.26,1.26,0,0,0-.44-.54,1.85,1.85,0,0,0-.95-.18H.91v3.14h.67a1.63,1.63,0,0,0,.81-.17,1.08,1.08,0,0,0,.44-.55A2.3,2.3,0,0,0,3,49.78Zm1-.05a2.86,2.86,0,0,1-.23,1.16,1.9,1.9,0,0,1-.7.81,2.21,2.21,0,0,1-1.24.3H0V47.64H1.87A2.35,2.35,0,0,1,3,47.88a1.7,1.7,0,0,1,.67.71A2.4,2.4,0,0,1,4,49.73Z"/><path class="cls-2" d="M6.86,39.7V33.41h2v3.25h1.32V33.41h2V43.6a4.54,4.54,0,0,1-.33,1.76H10.18v-7.6H8.86V43.6a4.66,4.66,0,0,1-.32,1.76H6.86V40.65a2.84,2.84,0,0,1-.7.3,3.58,3.58,0,0,1-1,.12H1.94a1.57,1.57,0,0,1-1.08-.34,1.13,1.13,0,0,1-.4-.93V33.86H5.78V35H2.47v5H5.25a5.27,5.27,0,0,0,1-.08A3.4,3.4,0,0,0,6.86,39.7Z"/><path class="cls-2" d="M64.45,33.63v4.5a9.19,9.19,0,0,1-.21,2.1,4.31,4.31,0,0,1-.6,1.45H61.86a3.21,3.21,0,0,0,.49-1.48,21.84,21.84,0,0,0,.1-2.21V34.74H55.14V33.63Z"/><path class="cls-2" d="M65.17,42.47h.23v.93a2.57,2.57,0,0,1-.86.17H54v-1.1h2.1v-4.8h2v4.8h1.18v-4.8h2v4.8h3.87Z"/><path class="cls-2" d="M53.53,37.6a2.42,2.42,0,0,1-.93.17h-.89V40.5h-2V33.4h2v3.26h1.82Z"/><path class="cls-2" d="M51.71,41.13v2.46a4.58,4.58,0,0,1-.32,1.75H49.57V42.23h-7v-1.1Z"/><path class="cls-2" d="M46.28,37.2a2.7,2.7,0,0,0-.48-1.59,1.1,1.1,0,0,0-.85-.48,1.11,1.11,0,0,0-.86.48,2.89,2.89,0,0,0,0,3.19,1.13,1.13,0,0,0,.86.47C45.68,39.27,46.28,38.35,46.28,37.2Zm1.1-2a2.94,2.94,0,0,1,.9,2.1,2.91,2.91,0,0,1-.9,2.1,3.53,3.53,0,0,1-4.86,0,2.92,2.92,0,0,1-.91-2.1,3,3,0,0,1,1.2-2.35H41V33.86H44v-1h2v1H48.9v1.07H47.08A3.61,3.61,0,0,1,47.38,35.18Z"/><path class="cls-2" d="M38.93,33.41V43.6a4.66,4.66,0,0,1-.32,1.76H36.92v-7.6H35.6V43.6a4.66,4.66,0,0,1-.32,1.76H33.6V40.65a2.84,2.84,0,0,1-.7.3,3.58,3.58,0,0,1-1,.12H28.68a1.59,1.59,0,0,1-1.08-.34,1.13,1.13,0,0,1-.4-.93V33.86h5.32V35H29.21v5H32a5.27,5.27,0,0,0,.95-.08,3.4,3.4,0,0,0,.66-.18V33.41h2v3.25h1.32V33.41Z"/><path class="cls-2" d="M24.59,33.64v3.72a4.37,4.37,0,0,1-.15,1.08,2.29,2.29,0,0,1-.33.83H26v.94a2.42,2.42,0,0,1-.93.17H20.65v3.21a4.58,4.58,0,0,1-.32,1.75H18.65v-5h-5V39.27h8.7a3,3,0,0,0,.19-.86,8.27,8.27,0,0,0,0-1V34.73h-7.9V33.64Z"/></g></g></svg>