<svg xmlns="http://www.w3.org/2000/svg" viewBox="0 0 234.88 142.4"><defs><style>.cls-1{fill:#fff;}</style></defs><g id="레이어_2" data-name="레이어 2"><g id="레이어_1-2" data-name="레이어 1"><path class="cls-1" d="M195.17,38.07v-4.2a.78.78,0,0,0-.78-.78H163.5c-8.9.26-10.83,2.71-10.83,12V60.47c0,8.76,1.93,12,10.31,12h31.41a.78.78,0,0,0,.78-.78v-4.2a.78.78,0,0,0-.78-.78l-26.18,0a2.2,2.2,0,0,1-2-2.39V41.21a2.2,2.2,0,0,1,2-2.39h26.18A.76.76,0,0,0,195.17,38.07Z"/><path class="cls-1" d="M87.8,0h-12A.78.78,0,0,0,75,.78V33.09H50c-6.71,0-10.32,2.31-10.32,8.11V64.33c0,4.9,2.06,8.13,8.9,8.13H78.39c7.1,0,10.19-4.52,10.19-9.42V.78A.78.78,0,0,0,87.8,0ZM75,64.29a2.22,2.22,0,0,1-2,2.39H55.17a2.21,2.21,0,0,1-2-2.39V41.21a2.21,2.21,0,0,1,2-2.39H73.05a2.22,2.22,0,0,1,2,2.39Z"/><path class="cls-1" d="M87.33,82.9h-12a.78.78,0,0,0-.77.78V105a.78.78,0,0,0,.77.78h12a.77.77,0,0,0,.78-.78V83.68a.78.78,0,0,0-.78-.78"/><path class="cls-1" d="M126.94,82.9h-12a.78.78,0,0,0-.78.78V105a.78.78,0,0,0,.78.78h12a.77.77,0,0,0,.78-.78V83.68a.78.78,0,0,0-.78-.78"/><path class="cls-1" d="M166.23,82.9h-12a.78.78,0,0,0-.78.78V105a.78.78,0,0,0,.78.78h12A.78.78,0,0,0,167,105V83.68a.79.79,0,0,0-.79-.78"/><path class="cls-1" d="M154.23,22.91h12a.79.79,0,0,0,.79-.78V.78a.79.79,0,0,0-.79-.78h-12a.78.78,0,0,0-.78.78V22.12a.79.79,0,0,0,.78.78"/><path class="cls-1" d="M114.94,22.9h12a.77.77,0,0,0,.78-.77V.78a.78.78,0,0,0-.78-.78h-12a.78.78,0,0,0-.78.78V22.13a.77.77,0,0,0,.78.77"/><path class="cls-1" d="M145.24,33.15H96.73a.71.71,0,0,0-.8.67v4.31a.77.77,0,0,0,.78.77h17.4V71.65a.82.82,0,0,0,.78.82h12a.85.85,0,0,0,.86-.78V38.9h17.48a.77.77,0,0,0,.78-.77v-4.2a.77.77,0,0,0-.77-.78"/><path class="cls-1" d="M7.74,128.53H2a1.76,1.76,0,0,0-2,1.85V136c0,.93.39,1.55,1.7,1.55H8.52a1.74,1.74,0,0,0,1.94-1.8V124H7.74Zm0,6.74c0,.57-.13.72-.77.72H3.49c-.66,0-.79-.15-.79-.72v-4.39c0-.59.15-.74.79-.74H7c.77,0,.77.15.77.74Z"/><path class="cls-1" d="M62.63,135.74v-7.25h-2.7v6.74c0,.59,0,.75-.76.75H55.61c-.74,0-.75-.16-.75-.75v-6.74H52.12v7.25a1.72,1.72,0,0,0,1.73,1.8h7.08A1.71,1.71,0,0,0,62.63,135.74Z"/><path class="cls-1" d="M44,132.11v1.39h2.91v1.75c0,.57-.26.73-1,.73h-3c-.8,0-1.05-.16-1.05-.73v-4.44c0-.6.25-.75,1-.75H49.6v-1.57H40.75A1.62,1.62,0,0,0,39,130.3v5.43c0,1.12.52,1.81,2,1.81h6.62c1,0,2-.42,2-1.81v-3.62Z"/><path class="cls-1" d="M21.79,128.49h-8.4v1.56h6.4c.74,0,1,.16,1,.75v1.29H14.71A1.69,1.69,0,0,0,13,133.75v2c0,1.38.92,1.8,2,1.8h6.6c1.44,0,1.95-.69,1.95-1.8v-5.45A1.61,1.61,0,0,0,21.79,128.49Zm-1,6.76c0,.57-.26.73-1.05.73h-3c-.79,0-1-.16-1-.73v-1c0-.59.23-.75,1-.75h4.12Z"/><path class="cls-1" d="M27.72,137.54h8.5V136h-6.5c-.74,0-1-.16-1-.75v-1.59h6.07A1.67,1.67,0,0,0,36.52,132v-1.7c0-1.38-.91-1.8-2-1.8H28c-1.44,0-1.95.69-1.95,1.8v5.45A1.61,1.61,0,0,0,27.72,137.54Zm1-6.76c0-.57.26-.73,1.05-.73h3c.79,0,1,.16,1,.73v.72c0,.6-.23.75-1,.75H28.72Z"/><path class="cls-1" d="M84.53,137.55H93V136h-6.5c-.75,0-1-.16-1-.76v-1.58H91.6A1.68,1.68,0,0,0,93.33,132V130.3c0-1.39-.91-1.81-2-1.81H84.77c-1.43,0-2,.7-2,1.81v5.44A1.62,1.62,0,0,0,84.53,137.55Zm1-6.77c0-.57.25-.73,1-.73h3c.79,0,1,.16,1,.73v.73c0,.59-.23.75-1,.75H85.53Z"/><polygon class="cls-1" points="97.83 137.55 100.49 134.4 103.3 137.55 106.58 137.55 102.32 132.74 106.12 128.48 103.61 128.48 101.03 131.38 98.41 128.48 95.11 128.48 99.14 132.98 95.17 137.55 97.83 137.55"/><rect class="cls-1" x="120.26" y="128.49" width="2.72" height="9.06"/><rect class="cls-1" x="120.26" y="125.13" width="2.72" height="2.02"/><polygon class="cls-1" points="69.64 130.3 73.88 130.3 73.88 137.55 76.59 137.55 76.59 130.3 80.82 130.3 80.82 128.49 69.64 128.49 69.64 130.3"/><polygon class="cls-1" points="106.93 130.3 111.16 130.3 111.16 137.55 113.87 137.55 113.87 130.3 118.11 130.3 118.11 128.49 106.93 128.49 106.93 130.3"/><rect class="cls-1" x="125.95" y="125.13" width="2.71" height="12.41"/><path class="cls-1" d="M133.27,137.55h8.5V136h-6.51c-.74,0-1-.16-1-.76v-1.58h6.07a1.69,1.69,0,0,0,1.73-1.66V130.3c0-1.39-.92-1.81-2-1.81h-6.6c-1.43,0-1.95.7-1.95,1.81v5.44A1.62,1.62,0,0,0,133.27,137.55Zm1-6.77c0-.57.25-.73,1-.73h3c.79,0,1.05.16,1.05.73v.73c0,.59-.23.75-1,.75h-4.12Z"/><polygon class="cls-1" points="226.13 137.57 228.79 134.42 231.6 137.57 234.88 137.57 230.63 132.77 234.43 128.5 231.92 128.5 229.34 131.41 226.72 128.5 223.42 128.5 227.44 133 223.48 137.57 226.13 137.57"/><path class="cls-1" d="M213.21,137.56h8.51V136h-6.51c-.74,0-1-.15-1-.75v-1.59h6.07A1.68,1.68,0,0,0,222,132v-1.7c0-1.38-.92-1.8-2-1.8h-6.6c-1.44,0-2,.69-2,1.8v5.45A1.61,1.61,0,0,0,213.21,137.56Zm1-6.76c0-.57.25-.73,1-.73h3c.79,0,1.05.16,1.05.73v.73c0,.59-.23.75-1,.75h-4.12Z"/><path class="cls-1" d="M201.23,128.49h-6.85a1.75,1.75,0,0,0-1.95,1.81v12.1h2.73v-4.86H201a1.76,1.76,0,0,0,2-1.85v-5.64C202.93,129.11,202.54,128.49,201.23,128.49Zm-1,6.69c0,.59-.16.75-.8.75h-3.49c-.77,0-.78-.16-.78-.75v-4.4c0-.57.13-.73.78-.73h3.49c.67,0,.8.16.8.73Z"/><path class="cls-1" d="M171.66,128.49h-7.07c-1.37,0-1.74.57-1.74,1.79v5.46c0,1.17.37,1.81,1.71,1.81h7.15c1.29,0,1.68-.74,1.68-1.81v-5.46C173.39,129.06,173,128.49,171.66,128.49Zm-1,6.74c0,.6-.26.76-1.05.76h-3c-.77,0-1-.16-1-.76v-4.4c0-.57.25-.73,1-.73h3c.79,0,1.05.16,1.05.73Z"/><path class="cls-1" d="M188,128.49h-3.19a1.87,1.87,0,0,0-1.86,1.09,1.7,1.7,0,0,0-1.83-1.09h-3.2a1.61,1.61,0,0,0-1.8,1.81v7.25h2.71v-6.69c0-.6.15-.75.91-.75h1c.77,0,.92.15.92.75v6.69h2.71v-6.69c0-.6.13-.75.9-.75h.95c.75,0,.89.15.89.75v6.69h2.74V130.3A1.64,1.64,0,0,0,188,128.49Z"/><path class="cls-1" d="M150.19,130.77v4.51c0,1.66.37,2.27,2,2.27h8.25V136H154c-.84,0-1.09-.15-1.09-.74v-4.34c0-.57.23-.72,1-.72h6.55v-1.72h-8.16C150.56,128.54,150.19,129,150.19,130.77Z"/><rect class="cls-1" x="205.9" y="125.13" width="2.71" height="12.41"/></g></g></svg>