<svg xmlns="http://www.w3.org/2000/svg" viewBox="0 0 256.3 257.02"><defs><style>.cls-1{fill:#fff;}.cls-2{fill:#f29300;}.cls-3{fill:#ea5514;}.cls-4{fill:#fbc400;}</style></defs><g id="레이어_2" data-name="레이어 2"><g id="Layer_1" data-name="Layer 1"><path class="cls-1" d="M1.39,242.79V223.73H5v18.82c.06,7.08,3.79,11,10,11,6,0,9.82-3.64,9.88-10.81V223.73h3.63v18.78c0,9.55-5.46,14.51-13.61,14.51S1.39,252.06,1.39,242.79Z"/><path class="cls-1" d="M62.58,223.73v32.74H59.69L39.12,229.69v26.78H35.51V223.73H38.9L59,249.88V223.73Z"/><path class="cls-1" d="M69.94,223.73h3.62v32.74H69.94Z"/><path class="cls-1" d="M197.54,223.73h3.62v32.74h-3.62Z"/><path class="cls-1" d="M76.72,223.73h4l11.39,28,11.43-28h3.88L93.68,256.47h-3.2Z"/><path class="cls-1" d="M110.6,223.73h23.46v3.44H114.23V238.3h17.45v3.42H114.23v11.36h19.83v3.39H110.6Z"/><path class="cls-1" d="M188.26,248c0-3-1.61-4.78-8.32-6.23-7.36-1.63-10.75-4.07-10.75-9.46,0,0-.25-9,10.52-9a16.45,16.45,0,0,1,11.25,4l-2.11,2.86a13.71,13.71,0,0,0-9.22-3.46c-7.13,0-6.82,5.29-6.82,5.29,0,3.09,1.64,4.83,8.69,6.37s10.42,4.26,10.42,9.27c0,0,.5,9.4-10.93,9.4a18.53,18.53,0,0,1-13.07-5.29l2.23-2.71c3.34,3.08,6.54,4.58,11,4.58C188.6,253.6,188.26,248,188.26,248Z"/><path class="cls-1" d="M215.19,227.17H205v-3.44h24v3.44H218.84v29.3h-3.65Z"/><path class="cls-1" d="M240.68,243.53l-11.93-19.8h4.4l9.41,16.4,9.51-16.4h4.21L244.34,243.5v13h-3.66Z"/><path class="cls-1" d="M161.08,256.47h4.32l-8.1-14.4c4.23-.95,7.17-3.74,7.17-8.93,0-6.48-4.59-9.41-10.55-9.41H140.07v32.74h3.62v-14h9.75Zm-17.39-29.3h10.2c4.51,0,6.93,2,6.93,6S158.4,239,153.89,239h-10.2Z"/><path class="cls-1" d="M222.93,158.28v51.43h8.79v-11c.28-.32,3.75-4.1,4.68-5.16l9.6,16.19h10.3l-14.12-22.54,13.56-14.87H244.92l-13.2,15V158.28Z"/><path class="cls-1" d="M160.81,218.89c5,0,9-1.49,11.94-4.44a16.45,16.45,0,0,0,4.43-11.84V172.3h-8.12a15.92,15.92,0,0,0-.4,2.8,12.72,12.72,0,0,0-8.92-3.26c-3.93,0-7.06,1.13-9.31,3.33-2.87,2.83-4.32,6.41-4.32,13.64s1.44,10.8,4.31,13.62a13.81,13.81,0,0,0,18,.18v1.12a9.24,9.24,0,0,1-1.79,6c-1.36,1.69-3.36,2.51-6.09,2.51a10.53,10.53,0,0,1-7.94-3.43l-4.93,5S151.21,218.89,160.81,218.89Zm6.43-24.13c-1.05,2.14-2.86,3.18-5.57,3.18s-4.51-1-5.55-3.18c-.82-1.58-1.22-2.57-1.22-6s.4-4.41,1.21-6c1-2.1,2.86-3.11,5.56-3.11s4.52,1,5.57,3.11c.76,1.6,1.14,2.63,1.14,6S168,193.19,167.24,194.76Z"/><path class="cls-1" d="M124.72,218.89c5,0,9-1.49,11.94-4.44a16.45,16.45,0,0,0,4.43-11.84V172.3H133a16.3,16.3,0,0,0-.39,2.8,12.72,12.72,0,0,0-8.92-3.26c-3.93,0-7.06,1.13-9.31,3.33-2.87,2.83-4.33,6.41-4.33,13.64s1.46,10.8,4.32,13.62a13.82,13.82,0,0,0,18,.18v1.12a9.24,9.24,0,0,1-1.8,6c-1.36,1.69-3.36,2.51-6.09,2.51a10.53,10.53,0,0,1-7.94-3.43l-4.93,5S115.12,218.89,124.72,218.89Zm6.43-24.13c-1.05,2.14-2.86,3.18-5.56,3.18s-4.52-1-5.56-3.18c-.82-1.58-1.22-2.57-1.22-6s.4-4.41,1.21-6c1-2.1,2.85-3.11,5.57-3.11s4.51,1,5.56,3.11c.76,1.6,1.15,2.63,1.15,6S131.91,193.19,131.15,194.76Z"/><path class="cls-1" d="M52.88,171.84a15.54,15.54,0,0,0-11.51,4.55c-3,3-4.46,7.91-4.46,14.56s1.5,11.61,4.46,14.64a15.57,15.57,0,0,0,11.51,4.53,15.64,15.64,0,0,0,11.57-4.53c3-3,4.46-8,4.46-14.64s-1.5-11.55-4.46-14.56A15.63,15.63,0,0,0,52.88,171.84Zm4.92,28.53a6.67,6.67,0,0,1-4.92,1.94A6.56,6.56,0,0,1,48,200.37c-1.54-1.51-2.32-4.69-2.32-9.42s.78-7.9,2.32-9.42a6.56,6.56,0,0,1,4.86-1.87,6.66,6.66,0,0,1,4.92,1.87c1.54,1.52,2.32,4.69,2.32,9.42S59.34,198.86,57.8,200.37Z"/><path class="cls-1" d="M206.79,172.3V195c0,2.46-.64,4.31-1.9,5.52a6.8,6.8,0,0,1-4.94,1.84,6.34,6.34,0,0,1-4.69-1.72,7.65,7.65,0,0,1-1.95-5.64V172.3h-8.79V196c0,4.57,1.29,8.17,3.86,10.66a13,13,0,0,0,9.44,3.46,13.42,13.42,0,0,0,9-3.26,18.59,18.59,0,0,0,.39,2.85h8.41V172.3Z"/><path class="cls-1" d="M91.6,171.84a13.62,13.62,0,0,0-9,3.26,18,18,0,0,0-.38-2.8H73.93v37.41h8.62V187a7.38,7.38,0,0,1,2-5.64,6.77,6.77,0,0,1,4.89-1.73,6.32,6.32,0,0,1,4.74,1.71,7.5,7.5,0,0,1,2,5.66v22.68H105V186c0-4.58-1.3-8.17-3.88-10.67A13.17,13.17,0,0,0,91.6,171.84Z"/><path class="cls-1" d="M23.1,175.1a14.4,14.4,0,0,0-9.4-3.26c-3.93,0-7.08,1.15-9.38,3.4C1.41,178.11,0,183.25,0,191s1.4,12.91,4.3,15.77c2.28,2.26,5.44,3.4,9.39,3.4a13.94,13.94,0,0,0,9.41-3.26,17.64,17.64,0,0,0,.38,2.85h8.41V158.28H23.1Zm-2.21,25.27A6.64,6.64,0,0,1,16,202.31a6.58,6.58,0,0,1-4.86-1.94c-1.54-1.51-2.32-4.69-2.32-9.42s.78-7.9,2.32-9.42A6.58,6.58,0,0,1,16,179.66a6.64,6.64,0,0,1,4.92,1.87c1.54,1.52,2.33,4.69,2.33,9.42S22.43,198.86,20.89,200.37Z"/><path class="cls-2" d="M96.43,83.51,60,94.18c-3.8,1.12-4.5,4.17-1.54,6.78l11.1,9.83c3.92,3.39,7.42,3.8,11.89,1.71l28-13V96.14Z"/><path class="cls-2" d="M109.43,68.09,74.93,26.46c-2.6-3.11-5.45-2.58-6.68,1.3l-4.66,15a11.26,11.26,0,0,0,3,11.82L96.43,83.51l13-3.81Z"/><polygon class="cls-3" points="109.44 79.7 96.43 83.51 109.44 96.14 109.44 79.7"/><path class="cls-3" d="M112.89,99.52l28.39,41.13c2.24,3.24,5.49,3.33,7.54-.36l5.84-10.49c2.56-4.72,1.94-8.15-1.26-11.62l-12.25-13.81Z"/><path class="cls-4" d="M141.15,104.37l44.13,7.57c5.18.87,8.54-.52,11.64-4.32L207.79,94.3c2.49-3,1.29-5.63-2.68-5.74l-66.05-1.82a18.06,18.06,0,0,1-5.66,8.88Z"/><path class="cls-3" d="M196.45,64.92c3.75-1.41,4.18-4.27.84-6.5l-14.43-9.55L139.72,83.62a19.62,19.62,0,0,1-.66,3.12Z"/><path class="cls-2" d="M182.86,48.87c-2.89-2-6.65-1.93-10.66.23l-36,19.52a20.19,20.19,0,0,1,3.74,12,22.28,22.28,0,0,1-.19,3Z"/><path class="cls-4" d="M172.2,49.1c4-2.16,7.77-2.19,10.66-.23l10.67-8.61c4.07-3.27,5.05-6.44,3.87-11.42l-4.47-18c-1-3.81-3.94-4.58-6.65-1.71L133.2,65.5a17.58,17.58,0,0,1,3,3.12Z"/><path class="cls-3" d="M148.5,24.17c1.7-4.6.83-8.24-2.75-11.6L134,1.54c-2.88-2.7-5.83-1.75-6.56,2.1l-3,16c3.37,1.87,4.49,5.18,4.24,9.34l-2.25,33.25a16.71,16.71,0,0,1,6.77,3.28Z"/><path class="cls-4" d="M110.49,12c-3.5-1.9-6-.17-5.64,3.73l4.58,46h7.06l8-42.13Z"/><path class="cls-2" d="M128.68,29c.25-4.16-.87-7.47-4.24-9.34l-8,42.13h5.84a18.8,18.8,0,0,1,4.1.46Z"/><path class="cls-2" d="M133.4,95.62a17,17,0,0,1-11.07,3.9h-9.44l28.26,4.85Z"/></g></g></svg>