<svg xmlns="http://www.w3.org/2000/svg" viewBox="0 0 184.18 101.87"><defs><style>.cls-1{fill:#af0055;}.cls-2{fill:#fff;}</style></defs><g id="레이어_2" data-name="레이어 2"><g id="Layer_1" data-name="Layer 1"><path class="cls-1" d="M71.36,27.62,70.15,17.49l-12,39.15h24L90.67,29A65.13,65.13,0,0,0,71.36,27.62Z"/><path class="cls-1" d="M93.87,18.55,99.55,0h-24L70.36,16.79A76,76,0,0,1,93.87,18.55Z"/><path class="cls-1" d="M123.24,34.39,133.79,0h-24l-6.56,21.41A57.43,57.43,0,0,1,123.24,34.39Z"/><path class="cls-1" d="M100,31.84l-7.61,24.8h24l3.07-10A44.84,44.84,0,0,0,100,31.84Z"/><path class="cls-2" d="M65.63,94.43V90.3h7.44V75.17H69.85V80H58.19V75.17H55V90.3h7.45v4.13H52.09v2.72H76V94.43Zm-7.44-6.87V82.71H69.85v4.85Z"/><path class="cls-2" d="M20.87,81.24H17.61V75.29H14.4V87.06H3.22V78H11V75.29H0V89.78H14.4v7.5h3.21V84h3.26V97.3h3.21v-22H20.87Z"/><path class="cls-2" d="M124.58,81.24h-3.26v-6h-3.21v11.8H106.93V78h7.82V75.29h-11V89.78h14.4v7.5h3.21V84h3.26V97.3h3.21v-22h-3.21Z"/><polygon class="cls-2" points="158.27 84.46 158.27 81.73 154.1 81.73 154.1 75.27 150.89 75.27 150.89 91.97 137.72 91.97 137.72 94.69 150.88 94.69 150.89 94.69 150.89 101.87 154.11 101.87 154.11 84.46 158.27 84.46"/><path class="cls-2" d="M146.47,83.45A6.92,6.92,0,0,0,143.84,78h4.29V75.28h-6.94v-2.4H138v2.4h-7V78h4.28a6.92,6.92,0,1,0,11.2,5.43Zm-10.88,0a4,4,0,1,1,4,4A4,4,0,0,1,135.59,83.45Z"/><polygon class="cls-2" points="47.07 75.29 29.63 75.29 29.63 78.02 43.85 78.02 43.85 87.49 26.77 87.49 26.77 90.22 36.99 90.22 36.99 97.31 40.21 97.31 40.21 90.22 51.23 90.22 51.23 87.49 47.07 87.49 47.07 75.29"/><path class="cls-2" d="M90,83h6.6V93.15H99.8V75H96.59v5.26H91.32a15.44,15.44,0,0,0,.88-5H79.37V78h9c-.79,7.44-10.19,9.32-10.19,9.32l1.87,2.14C85.2,88.47,88.38,85.82,90,83Z"/><polygon class="cls-2" points="86.87 91.76 83.65 91.76 83.65 101.68 100.25 101.68 100.25 98.95 86.87 98.95 86.87 91.76"/><polygon class="cls-2" points="180.74 93.79 180.74 78.48 180.74 78.48 180.74 75.6 161.61 75.6 161.61 78.48 177.35 78.48 177.35 93.79 173.58 93.79 173.58 86.71 170.19 86.71 170.19 93.79 166.98 93.79 166.98 86.71 163.59 86.71 163.59 93.79 158.94 93.79 158.94 96.68 184.18 96.68 184.18 93.79 180.74 93.79"/></g></g></svg>