<svg xmlns="http://www.w3.org/2000/svg" viewBox="0 0 326.26 356.17"><defs><style>.cls-1{fill:#fff;}.cls-2{fill:#e7bc03;}.cls-3{fill:#ed1b23;}.cls-4{fill:#0074be;}.cls-5{fill:#9aba67;}</style></defs><g id="레이어_2" data-name="레이어 2"><g id="레이어_1-2" data-name="레이어 1"><path class="cls-1" d="M72.87,328.41V284.08a30.33,30.33,0,0,0-3.54-14.78,18.94,18.94,0,0,0-9.62-8.9,56,56,0,0,0-10.53-3.15,80.35,80.35,0,0,0-14.77-1.11H15.79v72.27H0V174H15.79v67H30.56a68.1,68.1,0,0,0,13.26-.92,16.92,16.92,0,0,0,8-4.55,20.59,20.59,0,0,0,6.27-8.1q1.83-4.44,1.83-12.34c0-9.05,0-41.09,0-41.09h16s0,28.81,0,41.09a46.61,46.61,0,0,1-3,17.71,32.68,32.68,0,0,1-10.12,13A43.82,43.82,0,0,1,82,260.9q6.87,9.83,6.88,23.18v44.33Z"/><path class="cls-1" d="M117.94,313.59h20.24q12.15,0,17.61-1.62a25.08,25.08,0,0,0,10.53-6.68,27.35,27.35,0,0,0,6.48-9.41,32.08,32.08,0,0,0-1.32-26.42,18.9,18.9,0,0,0-9.62-8.9,55.7,55.7,0,0,0-10.52-3.15,80.4,80.4,0,0,0-14.78-1.11H123.27V241.13h9.45a68.17,68.17,0,0,0,13.26-.92,16.94,16.94,0,0,0,8-4.55,20.71,20.71,0,0,0,6.28-8.1q1.83-4.44,1.82-12.34c0-9.05-2.36-15.65-7.08-19.85s-12.15-6.27-22.27-6.27h-9.45a48.91,48.91,0,0,0-2.75-15H136q18.84,0,30.47,11.33t11.64,29.76a46.62,46.62,0,0,1-3,17.71,32.7,32.7,0,0,1-10.12,13,43.85,43.85,0,0,1,19.22,15.08q6.87,9.82,6.89,23.18a43.55,43.55,0,0,1-13.36,32,46.63,46.63,0,0,1-15.09,9.11,53.26,53.26,0,0,1-18.92,3.24H104.39Z"/><path class="cls-1" d="M326.26,328.41h-16V174h16Z"/><path class="cls-1" d="M277.07,328.4l.05-44.33a30.27,30.27,0,0,0-3.54-14.77,18.9,18.9,0,0,0-9.61-8.91,54.46,54.46,0,0,0-10.54-3.13,79.16,79.16,0,0,0-14.76-1.12h-8.58V241h4.74a68.1,68.1,0,0,0,13.26-.92,16.92,16.92,0,0,0,8-4.54,20.69,20.69,0,0,0,6.28-8.1q1.81-4.46,1.82-12.35,0-13.56-7.09-19.84T234.82,189s3.08,0-4.75,0a23,23,0,0,1,7.14-15h.85q18.82,0,30.46,11.33t11.64,29.75a46.58,46.58,0,0,1-3,17.71,32.46,32.46,0,0,1-10.12,13,43.87,43.87,0,0,1,19.23,15.07q6.88,9.84,6.88,23.18v44.32Z"/><path class="cls-2" d="M118.75,147.06a4.21,4.21,0,0,1-3.06-1.57h0c-7.23-9.55-17.37-15.9-30.28-15.9a3.82,3.82,0,0,1-4-3.78c0-11.71,18.47-30.73,24.6-30.73a2.37,2.37,0,0,1,2.45,2.45V114a15.7,15.7,0,0,0,15.71,15.7l77.88,0a15.71,15.71,0,0,0,15.71-15.71V97.53a2.37,2.37,0,0,1,2.45-2.45c6.13,0,24.59,19,24.59,30.73a3.81,3.81,0,0,1-3.95,3.78h0c-12.75,0-22.91,6.19-30.2,15.55l-.22.31a3.88,3.88,0,0,1-3.14,1.61Z"/><path class="cls-3" d="M46.31,132.89a17.17,17.17,0,0,1-17.22-17.17,76.28,76.28,0,0,1,2.05-10.49l.43-1.19c15-41.18,62-68.66,102.69-75.86l1.6-.25a19.7,19.7,0,0,1,2.79-.2,18.69,18.69,0,0,1,18.7,18.69V93.11a4,4,0,0,1-3.94,4h-9.53a3.94,3.94,0,0,1-3.93-4V59.62l0-1.29A10.83,10.83,0,0,0,129.1,47.51a13.86,13.86,0,0,0-2.15.16h0c-29.7,6.17-63.13,26.29-76.74,56h0a31.12,31.12,0,0,0-1.27,3.7,22,22,0,0,0-.75,4.24,3.87,3.87,0,0,0,3.87,3.87l16.55,0a4.08,4.08,0,0,1,3.88,3.88c0,1.83-3.64,9.63-3.64,9.63-.82,1.91-2,3.87-4.1,3.87H55Z"/><path class="cls-4" d="M279.64,132.89a17.17,17.17,0,0,0,17.22-17.17c0-1.74-1.62-8.9-2.1-10.49l-.43-1.19c-15-41.18-62-68.66-102.69-75.86L190,27.93a19.67,19.67,0,0,0-2.78-.2,18.7,18.7,0,0,0-18.71,18.69V93.11a4,4,0,0,0,4,4H182a3.94,3.94,0,0,0,3.93-4V59.62l0-1.29A10.83,10.83,0,0,1,196.8,47.51a13.64,13.64,0,0,1,2.14.16h0c29.7,6.17,63.14,26.29,76.75,56h0a27.46,27.46,0,0,1,1.29,3.61,17.75,17.75,0,0,1,.78,4.33,3.88,3.88,0,0,1-3.88,3.87l-16.55,0a4.08,4.08,0,0,0-3.87,3.88c0,1.83,3.64,9.63,3.64,9.63.82,1.91,2,3.87,4.09,3.87h9.72Z"/><path class="cls-5" d="M253,105.38h.56a6.67,6.67,0,0,0,6.67-6.68A6.6,6.6,0,0,0,259,94.78l-.46-.62C243.92,75,221.31,61.1,200.45,57.55h0c-.12,0-7.76-.47-7.76,7.76h0V97.47a7.75,7.75,0,0,1-7.76,7.76H141.39a7.75,7.75,0,0,1-7.76-7.76V65.31h0c0-8.23-7.65-7.76-7.76-7.76h0c-21,3.57-43.43,17.84-58,37.27l-.23.31A6.68,6.68,0,0,0,73,105.74h6.14a3.93,3.93,0,0,0,3.13-1.55l.24-.37C90.92,92.62,100.41,85.06,110.7,83a8.36,8.36,0,0,1,1.15-.19,4.42,4.42,0,0,1,4.41,4.5h0l0,23.12a12.06,12.06,0,0,0,12.06,12.06h69.91A11.84,11.84,0,0,0,210,110.47l0-23.12h0a4.42,4.42,0,0,1,4.41-4.5,8.62,8.62,0,0,1,1.15.19c10.27,2,20.08,9.24,28.47,20.41l.21.35a3.93,3.93,0,0,0,3.12,1.55Z"/><path class="cls-1" d="M29.84,54.41c-15,17.31-25.66,38-29.15,61.19l-.34,2.65c-.11,1.07-.16,8.6-.16,9.7A32.29,32.29,0,0,0,32.4,160.17H74.83c14.41,0,26,15.58,26,30V328.59h17.4V192.43c0-28.63-17.59-49.63-43.44-49.63l-36.87,0a19.32,19.32,0,0,1-19.4-19.31c0-.87,0-1.43,0-3.32a35.53,35.53,0,0,1,.71-8.13C30.85,62.71,80,26.86,133.51,18.18c0,0,22.77-2.86,29.46,15.6,6.61-18.46,29.74-15.7,29.74-15.7,53.34,8.65,102.1,44.33,113.9,93.34l.14.63a32,32,0,0,1,.7,6.24c0,3.17,0,4.34,0,5.21a19.28,19.28,0,0,1-19.41,19.26l-36.91,0c-26,0-43.25,21-43.25,49.64V328.59h17.45V190.14c0-14.4,11.4-30,25.8-30l42.47,0A32.23,32.23,0,0,0,325.83,128c0-1.1-.06-8.63-.17-9.7l-.34-2.66-.12-.77c-3.62-22.7-14.26-43.16-29.05-60.31l-.11-.13c-7-8.52-17.35-11.49-23.1-6.71l0,0c3.38-6.67-1.1-16.52-10.8-22.51h0L262,25C240.38,11.09,215.91,2.28,192.71.11c0,0-23.13-2.21-29.74,13.31C156.25-2.1,133.51.19,133.51.19c-23.58,2.47-48,11.2-69.41,24.86l-.13.08C54.24,31.07,49.72,40.9,53.06,47.59l0,0c-5.73-4.81-16.11-1.8-23.18,6.68Z"/><path class="cls-1" d="M0,356.17v-16H326v16Z"/></g></g></svg>